<svg xmlns="http://www.w3.org/2000/svg" width="1100" height="380" font-family="ui-sans-serif,system-ui,sans-serif">
<rect width="1100" height="380" fill="#fff"/>
<text x="8" y="18" font-size="14" font-weight="600">Tlha36rSd5o__240_374</text>
<text x="8" y="34" font-size="11" fill="#666">candidate offset +1.37s
 · IoU 0.850 at lag 0 -&gt; 0.941 at peak
 (+0.092) · margin 0.053
 · 3 models, spread 0.04s
 · VAD agrees (+1.26s)</text>
<line x1="60.0" y1="30" x2="60.0" y2="186" stroke="#eee"/><text x="60.0" y="200" font-size="10" fill="#999" text-anchor="middle">0s</text><line x1="182.5" y1="30" x2="182.5" y2="186" stroke="#eee"/><text x="182.5" y="200" font-size="10" fill="#999" text-anchor="middle">17s</text><line x1="305.0" y1="30" x2="305.0" y2="186" stroke="#eee"/><text x="305.0" y="200" font-size="10" fill="#999" text-anchor="middle">34s</text><line x1="427.5" y1="30" x2="427.5" y2="186" stroke="#eee"/><text x="427.5" y="200" font-size="10" fill="#999" text-anchor="middle">50s</text><line x1="550.0" y1="30" x2="550.0" y2="186" stroke="#eee"/><text x="550.0" y="200" font-size="10" fill="#999" text-anchor="middle">67s</text><line x1="672.5" y1="30" x2="672.5" y2="186" stroke="#eee"/><text x="672.5" y="200" font-size="10" fill="#999" text-anchor="middle">84s</text><line x1="795.0" y1="30" x2="795.0" y2="186" stroke="#eee"/><text x="795.0" y="200" font-size="10" fill="#999" text-anchor="middle">100s</text><line x1="917.5" y1="30" x2="917.5" y2="186" stroke="#eee"/><text x="917.5" y="200" font-size="10" fill="#999" text-anchor="middle">117s</text><line x1="1040.0" y1="30" x2="1040.0" y2="186" stroke="#eee"/><text x="1040.0" y="200" font-size="10" fill="#999" text-anchor="middle">134s</text>
<text x="4" y="48" font-size="11" fill="#555">waveform</text><polygon points="60.0,71.4 60.7,72.1 61.3,74.4 62.0,72.7 62.6,75.6 63.3,75.9 63.9,56.9 64.6,42.0 65.3,71.8 65.9,58.2 66.6,62.4 67.2,71.5 67.9,66.3 68.6,65.4 69.2,70.1 69.9,64.3 70.5,61.6 71.2,76.5 71.8,69.6 72.5,70.0 73.2,53.4 73.8,70.0 74.5,76.6 75.1,61.7 75.8,64.9 76.5,69.5 77.1,75.4 77.8,77.0 78.4,78.9 79.1,79.2 79.7,79.1 80.4,74.5 81.1,71.6 81.7,72.9 82.4,71.7 83.0,75.5 83.7,74.5 84.4,73.6 85.0,74.5 85.7,77.2 86.3,78.7 87.0,78.9 87.6,78.8 88.3,48.0 89.0,58.3 89.6,64.5 90.3,42.0 90.9,42.7 91.6,50.4 92.3,61.7 92.9,64.1 93.6,75.1 94.2,77.3 94.9,76.1 95.5,78.2 96.2,77.7 96.9,78.9 97.5,73.4 98.2,72.3 98.8,65.5 99.5,58.0 100.2,67.6 100.8,64.3 101.5,68.0 102.1,62.7 102.8,61.9 103.4,64.8 104.1,62.9 104.8,75.4 105.4,66.9 106.1,64.1 106.7,67.4 107.4,68.2 108.0,69.9 108.7,75.4 109.4,63.7 110.0,76.6 110.7,74.3 111.3,67.0 112.0,68.4 112.7,69.2 113.3,68.5 114.0,64.4 114.6,73.8 115.3,77.9 115.9,72.3 116.6,76.0 117.3,76.6 117.9,78.6 118.6,78.9 119.2,79.1 119.9,78.6 120.6,78.7 121.2,78.6 121.9,78.3 122.5,79.0 123.2,66.2 123.8,62.8 124.5,69.9 125.2,62.2 125.8,61.6 126.5,59.6 127.1,71.4 127.8,65.4 128.5,67.9 129.1,76.3 129.8,67.3 130.4,62.0 131.1,76.2 131.7,56.7 132.4,50.2 133.1,44.3 133.7,66.0 134.4,59.1 135.0,46.4 135.7,50.9 136.4,47.7 137.0,44.4 137.7,64.3 138.3,47.9 139.0,69.3 139.6,58.1 140.3,66.4 141.0,50.6 141.6,57.0 142.3,70.2 142.9,70.4 143.6,67.4 144.3,70.8 144.9,69.5 145.6,75.1 146.2,75.7 146.9,72.0 147.5,75.1 148.2,68.1 148.9,54.0 149.5,48.4 150.2,58.3 150.8,42.0 151.5,57.5 152.1,43.3 152.8,56.0 153.5,49.4 154.1,66.3 154.8,68.2 155.4,72.2 156.1,74.4 156.8,76.0 157.4,64.1 158.1,65.5 158.7,67.0 159.4,65.3 160.0,64.3 160.7,72.6 161.4,78.9 162.0,78.4 162.7,79.1 163.3,78.2 164.0,78.6 164.7,78.5 165.3,74.7 166.0,70.5 166.6,71.2 167.3,65.5 167.9,47.6 168.6,73.6 169.3,76.6 169.9,67.6 170.6,67.5 171.2,67.4 171.9,70.4 172.6,71.2 173.2,72.3 173.9,71.7 174.5,71.9 175.2,73.6 175.8,76.9 176.5,71.8 177.2,76.9 177.8,71.4 178.5,72.8 179.1,71.0 179.8,73.1 180.5,75.2 181.1,77.6 181.8,69.4 182.4,68.9 183.1,75.6 183.7,78.2 184.4,76.8 185.1,76.8 185.7,77.1 186.4,75.7 187.0,78.7 187.7,78.5 188.4,78.8 189.0,78.9 189.7,77.3 190.3,76.0 191.0,76.9 191.6,60.5 192.3,62.8 193.0,67.7 193.6,75.3 194.3,76.0 194.9,50.3 195.6,66.8 196.2,75.6 196.9,51.8 197.6,73.9 198.2,77.5 198.9,78.3 199.5,77.6 200.2,77.3 200.9,77.5 201.5,77.8 202.2,77.2 202.8,77.1 203.5,69.8 204.1,65.1 204.8,66.6 205.5,70.8 206.1,63.8 206.8,66.7 207.4,74.8 208.1,72.5 208.8,68.4 209.4,73.7 210.1,76.1 210.7,75.8 211.4,68.6 212.0,71.6 212.7,67.7 213.4,72.4 214.0,76.0 214.7,76.3 215.3,64.8 216.0,76.5 216.7,76.8 217.3,77.5 218.0,75.0 218.6,77.9 219.3,78.8 219.9,79.0 220.6,78.8 221.3,78.9 221.9,75.9 222.6,68.8 223.2,52.8 223.9,70.4 224.6,70.2 225.2,45.2 225.9,66.8 226.5,75.1 227.2,60.4 227.8,72.5 228.5,77.3 229.2,78.3 229.8,76.9 230.5,77.2 231.1,78.7 231.8,79.5 232.5,79.5 233.1,79.7 233.8,79.4 234.4,79.3 235.1,79.6 235.7,79.0 236.4,79.2 237.1,79.3 237.7,79.4 238.4,79.5 239.0,79.6 239.7,79.2 240.3,79.5 241.0,78.7 241.7,72.5 242.3,69.1 243.0,77.2 243.6,68.4 244.3,62.4 245.0,66.3 245.6,74.5 246.3,70.5 246.9,72.5 247.6,59.4 248.2,73.6 248.9,70.0 249.6,57.3 250.2,60.1 250.9,65.5 251.5,74.3 252.2,62.5 252.9,69.2 253.5,63.8 254.2,74.3 254.8,69.6 255.5,69.1 256.1,72.5 256.8,74.6 257.5,68.5 258.1,69.7 258.8,77.3 259.4,68.6 260.1,73.8 260.8,74.9 261.4,68.5 262.1,72.0 262.7,78.4 263.4,78.9 264.0,79.4 264.7,79.4 265.4,79.2 266.0,79.5 266.7,78.8 267.3,79.0 268.0,79.3 268.7,79.3 269.3,79.1 270.0,68.0 270.6,75.6 271.3,71.1 271.9,76.7 272.6,78.4 273.3,71.9 273.9,64.7 274.6,68.0 275.2,72.6 275.9,71.9 276.6,68.7 277.2,66.5 277.9,72.6 278.5,73.8 279.2,71.3 279.8,60.3 280.5,74.0 281.2,74.4 281.8,67.4 282.5,66.5 283.1,74.8 283.8,78.3 284.4,78.1 285.1,79.0 285.8,79.4 286.4,79.6 287.1,78.9 287.7,78.7 288.4,79.4 289.1,79.6 289.7,79.4 290.4,66.8 291.0,72.4 291.7,66.9 292.3,55.9 293.0,65.0 293.7,74.6 294.3,66.8 295.0,71.4 295.6,51.7 296.3,55.9 297.0,73.7 297.6,73.6 298.3,74.9 298.9,74.1 299.6,75.7 300.2,63.4 300.9,72.1 301.6,69.5 302.2,74.5 302.9,64.3 303.5,65.4 304.2,75.8 304.9,73.5 305.5,71.7 306.2,63.5 306.8,66.5 307.5,77.4 308.1,68.1 308.8,68.0 309.5,67.6 310.1,67.8 310.8,69.8 311.4,77.5 312.1,71.9 312.8,77.1 313.4,69.6 314.1,78.2 314.7,70.9 315.4,68.8 316.0,77.7 316.7,67.3 317.4,69.9 318.0,69.9 318.7,78.0 319.3,78.1 320.0,79.0 320.7,79.1 321.3,79.2 322.0,67.7 322.6,73.2 323.3,66.0 323.9,74.5 324.6,68.2 325.3,71.6 325.9,63.6 326.6,69.9 327.2,64.1 327.9,75.3 328.5,69.0 329.2,51.9 329.9,68.2 330.5,69.0 331.2,68.8 331.8,76.0 332.5,73.9 333.2,74.8 333.8,71.6 334.5,74.9 335.1,78.8 335.8,78.3 336.4,77.3 337.1,78.5 337.8,73.0 338.4,65.0 339.1,71.1 339.7,72.5 340.4,64.3 341.1,66.6 341.7,65.3 342.4,69.9 343.0,62.4 343.7,77.1 344.3,72.1 345.0,76.6 345.7,78.1 346.3,73.1 347.0,77.4 347.6,78.5 348.3,78.5 349.0,79.2 349.6,78.9 350.3,79.3 350.9,78.4 351.6,79.3 352.2,79.3 352.9,79.2 353.6,77.6 354.2,75.3 354.9,75.6 355.5,77.8 356.2,79.0 356.9,74.7 357.5,69.9 358.2,69.0 358.8,75.3 359.5,68.9 360.1,65.6 360.8,76.1 361.5,56.8 362.1,63.5 362.8,42.0 363.4,75.2 364.1,76.5 364.8,77.9 365.4,69.9 366.1,76.0 366.7,78.7 367.4,78.3 368.0,78.9 368.7,79.2 369.4,78.7 370.0,78.5 370.7,78.5 371.3,79.4 372.0,79.2 372.6,79.4 373.3,68.0 374.0,64.5 374.6,75.8 375.3,74.6 375.9,76.6 376.6,70.4 377.3,77.6 377.9,67.8 378.6,75.2 379.2,78.4 379.9,79.2 380.5,79.1 381.2,79.2 381.9,79.6 382.5,79.2 383.2,79.5 383.8,79.5 384.5,63.9 385.2,63.6 385.8,77.7 386.5,73.1 387.1,67.5 387.8,72.0 388.4,78.1 389.1,65.8 389.8,76.9 390.4,69.3 391.1,68.3 391.7,78.1 392.4,70.7 393.1,68.6 393.7,63.5 394.4,66.7 395.0,62.6 395.7,69.6 396.3,70.2 397.0,76.9 397.7,72.7 398.3,78.3 399.0,78.9 399.6,79.5 400.3,79.4 401.0,79.3 401.6,79.3 402.3,75.6 402.9,75.2 403.6,70.9 404.2,73.9 404.9,67.0 405.6,74.8 406.2,78.4 406.9,64.5 407.5,72.9 408.2,76.3 408.9,73.4 409.5,73.8 410.2,78.2 410.8,78.1 411.5,77.6 412.1,77.6 412.8,77.8 413.5,79.1 414.1,75.2 414.8,71.7 415.4,77.6 416.1,72.6 416.7,72.0 417.4,73.4 418.1,71.2 418.7,77.0 419.4,68.2 420.0,74.0 420.7,76.0 421.4,77.8 422.0,69.6 422.7,67.3 423.3,70.1 424.0,70.0 424.6,72.6 425.3,75.2 426.0,72.5 426.6,74.8 427.3,73.7 427.9,74.5 428.6,73.7 429.3,69.7 429.9,75.7 430.6,71.8 431.2,76.5 431.9,74.8 432.5,70.5 433.2,72.3 433.9,77.1 434.5,77.5 435.2,78.9 435.8,79.0 436.5,78.1 437.2,79.2 437.8,79.0 438.5,79.3 439.1,78.7 439.8,78.9 440.4,72.4 441.1,63.9 441.8,51.6 442.4,70.9 443.1,63.9 443.7,70.1 444.4,77.4 445.1,65.1 445.7,67.7 446.4,75.6 447.0,71.3 447.7,77.4 448.3,77.5 449.0,77.8 449.7,76.5 450.3,69.8 451.0,75.2 451.6,77.3 452.3,78.9 453.0,79.2 453.6,79.3 454.3,69.8 454.9,62.9 455.6,74.1 456.2,78.4 456.9,78.7 457.6,79.0 458.2,78.9 458.9,78.1 459.5,79.0 460.2,75.5 460.8,67.9 461.5,75.2 462.2,55.4 462.8,67.1 463.5,52.8 464.1,66.4 464.8,61.3 465.5,77.6 466.1,62.7 466.8,74.8 467.4,72.4 468.1,68.2 468.7,72.0 469.4,75.9 470.1,73.2 470.7,63.8 471.4,69.6 472.0,68.1 472.7,75.2 473.4,67.5 474.0,72.7 474.7,71.4 475.3,70.8 476.0,76.5 476.6,64.3 477.3,70.2 478.0,77.2 478.6,79.0 479.3,78.7 479.9,79.2 480.6,79.3 481.3,78.9 481.9,79.2 482.6,68.3 483.2,62.6 483.9,54.0 484.5,69.2 485.2,75.8 485.9,56.2 486.5,68.4 487.2,73.0 487.8,73.0 488.5,51.7 489.2,60.4 489.8,66.7 490.5,72.9 491.1,73.4 491.8,65.3 492.4,77.1 493.1,77.6 493.8,77.5 494.4,65.9 495.1,62.2 495.7,57.9 496.4,65.5 497.1,45.9 497.7,60.3 498.4,68.4 499.0,66.3 499.7,75.4 500.3,77.8 501.0,78.9 501.7,79.4 502.3,79.2 503.0,79.4 503.6,79.5 504.3,79.6 504.9,79.2 505.6,78.4 506.3,79.2 506.9,79.4 507.6,79.4 508.2,79.4 508.9,78.9 509.6,79.1 510.2,78.5 510.9,79.3 511.5,78.1 512.2,71.3 512.8,72.7 513.5,76.7 514.2,74.3 514.8,68.7 515.5,76.4 516.1,63.8 516.8,71.5 517.5,52.3 518.1,72.3 518.8,75.5 519.4,66.0 520.1,61.1 520.7,72.2 521.4,76.7 522.1,42.0 522.7,68.7 523.4,68.7 524.0,73.3 524.7,77.8 525.4,62.9 526.0,66.4 526.7,61.8 527.3,67.4 528.0,42.0 528.6,51.4 529.3,57.8 530.0,53.9 530.6,71.4 531.3,67.5 531.9,56.9 532.6,62.7 533.3,75.8 533.9,68.1 534.6,74.2 535.2,78.3 535.9,72.2 536.5,77.6 537.2,77.5 537.9,78.7 538.5,79.1 539.2,79.3 539.8,78.7 540.5,79.0 541.2,78.9 541.8,78.4 542.5,79.0 543.1,79.2 543.8,73.9 544.4,50.9 545.1,68.2 545.8,60.1 546.4,73.4 547.1,68.4 547.7,63.2 548.4,57.9 549.0,55.6 549.7,63.4 550.4,67.2 551.0,43.8 551.7,65.4 552.3,58.6 553.0,71.9 553.7,74.8 554.3,52.7 555.0,59.1 555.6,74.0 556.3,47.3 556.9,48.6 557.6,69.2 558.3,75.1 558.9,77.4 559.6,78.6 560.2,79.2 560.9,78.8 561.6,78.7 562.2,79.1 562.9,79.1 563.5,79.4 564.2,79.7 564.8,79.7 565.5,79.7 566.2,79.5 566.8,78.7 567.5,63.9 568.1,71.4 568.8,42.0 569.5,50.3 570.1,53.7 570.8,71.9 571.4,63.6 572.1,65.8 572.7,53.2 573.4,56.4 574.1,67.0 574.7,73.9 575.4,53.5 576.0,63.3 576.7,74.3 577.4,77.3 578.0,77.2 578.7,61.5 579.3,49.2 580.0,53.7 580.6,71.3 581.3,75.5 582.0,58.5 582.6,55.4 583.3,70.6 583.9,58.1 584.6,61.4 585.3,55.8 585.9,72.9 586.6,60.0 587.2,42.0 587.9,62.9 588.5,49.4 589.2,63.0 589.9,42.0 590.5,64.9 591.2,65.7 591.8,59.7 592.5,75.4 593.1,77.3 593.8,74.8 594.5,77.1 595.1,78.8 595.8,79.3 596.4,79.4 597.1,79.4 597.8,79.3 598.4,79.3 599.1,79.6 599.7,77.2 600.4,63.3 601.0,65.5 601.7,44.5 602.4,61.0 603.0,63.9 603.7,60.5 604.3,75.4 605.0,76.4 605.7,70.9 606.3,75.6 607.0,77.7 607.6,77.6 608.3,78.7 608.9,78.6 609.6,75.2 610.3,67.9 610.9,75.1 611.6,71.9 612.2,62.0 612.9,68.8 613.6,62.3 614.2,74.7 614.9,63.7 615.5,68.6 616.2,54.7 616.8,56.5 617.5,56.6 618.2,42.0 618.8,64.7 619.5,58.0 620.1,73.6 620.8,75.4 621.5,78.4 622.1,77.6 622.8,77.4 623.4,77.9 624.1,78.6 624.7,78.6 625.4,78.7 626.1,78.8 626.7,78.7 627.4,79.0 628.0,79.1 628.7,78.7 629.4,78.5 630.0,75.5 630.7,64.8 631.3,61.4 632.0,68.5 632.6,53.7 633.3,56.2 634.0,64.6 634.6,76.9 635.3,78.4 635.9,78.9 636.6,78.7 637.2,75.4 637.9,75.6 638.6,78.1 639.2,78.3 639.9,78.0 640.5,76.0 641.2,72.9 641.9,65.2 642.5,42.0 643.2,42.0 643.8,58.4 644.5,57.4 645.1,60.6 645.8,46.9 646.5,50.9 647.1,62.5 647.8,65.7 648.4,76.4 649.1,78.5 649.8,79.3 650.4,77.7 651.1,78.6 651.7,79.2 652.4,79.0 653.0,79.0 653.7,78.4 654.4,77.7 655.0,78.4 655.7,69.1 656.3,51.9 657.0,72.6 657.7,74.8 658.3,73.8 659.0,57.1 659.6,64.3 660.3,62.3 660.9,76.0 661.6,72.5 662.3,72.4 662.9,76.6 663.6,78.2 664.2,43.1 664.9,56.3 665.6,54.7 666.2,77.2 666.9,69.8 667.5,71.7 668.2,67.8 668.8,71.6 669.5,71.8 670.2,77.9 670.8,74.6 671.5,77.9 672.1,69.2 672.8,62.6 673.5,67.8 674.1,70.8 674.8,77.0 675.4,79.3 676.1,77.7 676.7,79.5 677.4,79.5 678.1,79.6 678.7,79.7 679.4,79.8 680.0,79.8 680.7,79.7 681.3,79.8 682.0,79.8 682.7,73.6 683.3,75.1 684.0,76.4 684.6,56.9 685.3,70.9 686.0,58.1 686.6,68.8 687.3,56.4 687.9,71.1 688.6,69.7 689.2,75.2 689.9,61.6 690.6,63.4 691.2,72.2 691.9,72.1 692.5,69.3 693.2,71.7 693.9,74.0 694.5,73.6 695.2,73.3 695.8,70.7 696.5,72.9 697.1,78.3 697.8,79.3 698.5,79.2 699.1,79.6 699.8,79.5 700.4,79.8 701.1,79.5 701.8,79.7 702.4,79.0 703.1,73.8 703.7,75.9 704.4,67.5 705.0,72.0 705.7,59.9 706.4,69.0 707.0,67.7 707.7,68.0 708.3,69.5 709.0,60.5 709.7,72.0 710.3,75.1 711.0,72.0 711.6,68.2 712.3,75.4 712.9,61.3 713.6,76.5 714.3,63.5 714.9,71.3 715.6,74.0 716.2,74.2 716.9,78.5 717.6,79.1 718.2,79.6 718.9,79.8 719.5,79.8 720.2,79.9 720.8,79.8 721.5,79.5 722.2,79.7 722.8,79.9 723.5,79.7 724.1,79.5 724.8,79.4 725.4,79.8 726.1,79.7 726.8,79.7 727.4,66.0 728.1,63.5 728.7,67.2 729.4,67.3 730.1,72.0 730.7,76.2 731.4,75.6 732.0,68.6 732.7,71.8 733.3,78.5 734.0,72.8 734.7,75.9 735.3,75.9 736.0,73.4 736.6,71.9 737.3,71.7 738.0,73.0 738.6,78.4 739.3,72.2 739.9,73.1 740.6,45.7 741.2,74.4 741.9,67.9 742.6,56.0 743.2,69.4 743.9,75.2 744.5,63.6 745.2,71.8 745.9,71.4 746.5,77.1 747.2,74.0 747.8,59.7 748.5,74.8 749.1,77.5 749.8,69.9 750.5,73.0 751.1,67.8 751.8,77.9 752.4,79.0 753.1,79.6 753.8,79.6 754.4,79.7 755.1,79.7 755.7,79.7 756.4,68.0 757.0,68.0 757.7,71.6 758.4,68.2 759.0,64.0 759.7,77.8 760.3,69.0 761.0,48.5 761.7,64.7 762.3,62.6 763.0,61.2 763.6,68.2 764.3,54.8 764.9,49.1 765.6,49.9 766.3,53.3 766.9,59.4 767.6,73.5 768.2,47.0 768.9,69.1 769.5,68.1 770.2,66.1 770.9,74.3 771.5,64.4 772.2,63.0 772.8,53.9 773.5,48.9 774.2,74.2 774.8,46.4 775.5,60.3 776.1,62.5 776.8,73.4 777.4,73.5 778.1,77.9 778.8,78.2 779.4,65.7 780.1,74.0 780.7,56.2 781.4,76.2 782.1,68.3 782.7,71.5 783.4,76.8 784.0,73.1 784.7,78.0 785.3,74.7 786.0,78.6 786.7,79.1 787.3,79.5 788.0,79.3 788.6,79.5 789.3,79.5 790.0,79.3 790.6,76.1 791.3,49.2 791.9,65.7 792.6,66.3 793.2,67.4 793.9,73.3 794.6,69.0 795.2,57.4 795.9,68.6 796.5,62.6 797.2,77.1 797.9,68.6 798.5,64.7 799.2,74.6 799.8,75.2 800.5,75.5 801.1,73.1 801.8,65.5 802.5,68.2 803.1,74.6 803.8,70.8 804.4,73.2 805.1,77.8 805.8,74.5 806.4,76.4 807.1,78.8 807.7,79.1 808.4,79.7 809.0,79.5 809.7,79.5 810.4,79.8 811.0,74.2 811.7,66.3 812.3,72.9 813.0,70.3 813.6,68.8 814.3,72.6 815.0,66.9 815.6,76.3 816.3,69.7 816.9,75.5 817.6,74.7 818.3,75.3 818.9,71.1 819.6,75.5 820.2,76.9 820.9,71.2 821.5,78.3 822.2,73.1 822.9,58.5 823.5,67.9 824.2,72.8 824.8,70.7 825.5,77.0 826.2,65.1 826.8,74.8 827.5,78.8 828.1,79.2 828.8,75.7 829.4,66.2 830.1,72.0 830.8,73.7 831.4,68.0 832.1,64.1 832.7,64.2 833.4,73.7 834.1,72.4 834.7,75.1 835.4,74.1 836.0,68.8 836.7,76.9 837.3,73.1 838.0,44.0 838.7,68.7 839.3,75.9 840.0,63.8 840.6,70.5 841.3,71.1 842.0,72.5 842.6,71.2 843.3,67.0 843.9,72.6 844.6,67.8 845.2,78.6 845.9,75.6 846.6,73.1 847.2,78.5 847.9,79.0 848.5,79.5 849.2,79.6 849.9,78.0 850.5,67.0 851.2,66.3 851.8,75.9 852.5,78.2 853.1,79.2 853.8,79.4 854.5,79.6 855.1,79.8 855.8,76.6 856.4,71.6 857.1,62.1 857.7,76.4 858.4,71.4 859.1,74.5 859.7,67.2 860.4,55.6 861.0,70.2 861.7,67.8 862.4,71.4 863.0,69.1 863.7,75.1 864.3,72.6 865.0,65.8 865.6,75.1 866.3,73.6 867.0,61.9 867.6,66.4 868.3,73.9 868.9,75.2 869.6,78.3 870.3,71.7 870.9,62.7 871.6,71.7 872.2,71.5 872.9,56.4 873.5,70.3 874.2,73.1 874.9,75.7 875.5,74.0 876.2,73.3 876.8,78.1 877.5,78.9 878.2,79.2 878.8,79.5 879.5,79.7 880.1,79.7 880.8,79.9 881.4,79.9 882.1,79.9 882.8,79.5 883.4,74.8 884.1,77.8 884.7,78.6 885.4,70.5 886.1,71.2 886.7,76.8 887.4,79.1 888.0,76.7 888.7,68.4 889.3,63.7 890.0,65.5 890.7,59.8 891.3,71.2 892.0,74.7 892.6,69.9 893.3,69.0 894.0,73.4 894.6,73.3 895.3,73.4 895.9,74.3 896.6,78.5 897.2,79.4 897.9,79.5 898.6,79.7 899.2,79.7 899.9,79.8 900.5,79.8 901.2,78.8 901.8,68.2 902.5,77.7 903.2,59.5 903.8,60.0 904.5,71.4 905.1,73.2 905.8,75.5 906.5,74.7 907.1,77.4 907.8,77.2 908.4,76.1 909.1,79.0 909.7,77.4 910.4,77.2 911.1,79.1 911.7,79.5 912.4,78.7 913.0,79.0 913.7,73.7 914.4,68.8 915.0,66.4 915.7,75.0 916.3,78.4 917.0,73.5 917.6,62.4 918.3,69.0 919.0,67.1 919.6,74.7 920.3,76.2 920.9,59.6 921.6,77.6 922.3,60.1 922.9,65.7 923.6,68.3 924.2,72.6 924.9,77.7 925.5,53.7 926.2,66.2 926.9,71.9 927.5,77.4 928.2,78.8 928.8,79.1 929.5,79.4 930.2,79.7 930.8,75.5 931.5,78.8 932.1,65.6 932.8,69.7 933.4,74.5 934.1,76.0 934.8,70.4 935.4,77.7 936.1,71.5 936.7,65.7 937.4,78.0 938.1,69.1 938.7,68.0 939.4,75.9 940.0,78.0 940.7,74.6 941.3,70.1 942.0,76.8 942.7,78.4 943.3,69.5 944.0,76.3 944.6,75.3 945.3,68.8 945.9,76.0 946.6,74.3 947.3,68.1 947.9,72.7 948.6,77.6 949.2,77.1 949.9,72.2 950.6,70.3 951.2,72.4 951.9,65.8 952.5,73.1 953.2,70.8 953.8,76.6 954.5,79.2 955.2,79.4 955.8,79.3 956.5,79.2 957.1,79.6 957.8,77.4 958.5,75.3 959.1,76.5 959.8,78.6 960.4,78.6 961.1,69.9 961.7,72.3 962.4,75.1 963.1,71.8 963.7,75.4 964.4,73.8 965.0,76.0 965.7,70.2 966.4,70.9 967.0,69.8 967.7,66.5 968.3,74.4 969.0,76.1 969.6,77.5 970.3,74.9 971.0,72.6 971.6,71.6 972.3,77.9 972.9,79.0 973.6,79.5 974.3,79.7 974.9,70.1 975.6,71.8 976.2,74.4 976.9,76.9 977.5,77.5 978.2,79.2 978.9,76.2 979.5,77.9 980.2,73.9 980.8,74.6 981.5,73.3 982.2,74.4 982.8,78.8 983.5,79.5 984.1,79.7 984.8,79.7 985.4,79.7 986.1,79.5 986.8,75.1 987.4,75.1 988.1,69.4 988.7,57.0 989.4,72.4 990.0,63.0 990.7,71.5 991.4,62.9 992.0,71.3 992.7,75.7 993.3,65.8 994.0,77.7 994.7,73.7 995.3,76.6 996.0,78.7 996.6,74.5 997.3,68.0 997.9,73.9 998.6,58.9 999.3,67.7 999.9,72.6 1000.6,78.1 1001.2,60.5 1001.9,76.9 1002.6,69.4 1003.2,76.2 1003.9,72.3 1004.5,73.9 1005.2,72.9 1005.8,62.9 1006.5,68.6 1007.2,65.3 1007.8,62.4 1008.5,65.1 1009.1,76.4 1009.8,64.3 1010.5,73.8 1011.1,65.8 1011.8,61.9 1012.4,75.4 1013.1,59.3 1013.7,70.8 1014.4,66.3 1015.1,74.3 1015.7,74.3 1016.4,77.9 1017.0,68.5 1017.7,75.1 1018.4,78.1 1019.0,79.1 1019.7,79.7 1020.3,78.7 1021.0,79.2 1021.6,79.1 1022.3,79.3 1023.0,49.6 1023.6,58.8 1024.3,46.3 1024.9,56.6 1025.6,71.3 1026.3,67.1 1026.9,66.3 1027.6,76.4 1028.2,78.2 1028.9,42.0 1029.5,42.0 1030.2,42.0 1030.9,42.0 1031.5,58.7 1032.2,70.4 1032.8,47.8 1033.5,71.3 1034.1,51.3 1034.8,42.0 1035.5,69.2 1036.1,61.3 1036.8,47.6 1037.4,50.0 1038.1,72.7 1038.8,70.4 1039.4,59.4 1039.9,80 60.0,80" fill="#cfd8e3" stroke="none"/>
<text x="4" y="108" font-size="11" fill="#555">GT raw</text><rect x="60.1" y="92" width="26.6" height="18" fill="#c0392b"/><rect x="89.0" y="92" width="139.0" height="18" fill="#c0392b"/><rect x="231.1" y="92" width="8.0" height="18" fill="#c0392b"/><rect x="250.2" y="92" width="44.6" height="18" fill="#c0392b"/><rect x="299.2" y="92" width="58.6" height="18" fill="#c0392b"/><rect x="363.1" y="92" width="126.2" height="18" fill="#c0392b"/><rect x="491.0" y="92" width="19.9" height="18" fill="#c0392b"/><rect x="520.8" y="92" width="48.1" height="18" fill="#c0392b"/><rect x="576.5" y="92" width="55.4" height="18" fill="#c0392b"/><rect x="639.2" y="92" width="88.3" height="18" fill="#c0392b"/><rect x="736.1" y="92" width="81.8" height="18" fill="#c0392b"/><rect x="820.1" y="92" width="145.1" height="18" fill="#c0392b"/><rect x="966.8" y="92" width="73.2" height="18" fill="#c0392b"/>
<text x="4" y="132" font-size="11" fill="#555">GT shifted</text><rect x="60.0" y="116" width="15.7" height="18" fill="#e67e22"/><rect x="78.1" y="116" width="139.0" height="18" fill="#e67e22"/><rect x="220.1" y="116" width="8.0" height="18" fill="#e67e22"/><rect x="239.3" y="116" width="44.6" height="18" fill="#e67e22"/><rect x="288.3" y="116" width="58.6" height="18" fill="#e67e22"/><rect x="352.2" y="116" width="126.2" height="18" fill="#e67e22"/><rect x="480.0" y="116" width="19.9" height="18" fill="#e67e22"/><rect x="509.8" y="116" width="48.1" height="18" fill="#e67e22"/><rect x="565.5" y="116" width="55.4" height="18" fill="#e67e22"/><rect x="628.3" y="116" width="88.3" height="18" fill="#e67e22"/><rect x="725.2" y="116" width="81.8" height="18" fill="#e67e22"/><rect x="809.1" y="116" width="145.1" height="18" fill="#e67e22"/><rect x="955.8" y="116" width="73.2" height="18" fill="#e67e22"/>
<text x="4" y="156" font-size="11" fill="#555">consensus</text><rect x="60.1" y="140" width="14.6" height="18" fill="#2c6fbb"/><rect x="79.8" y="140" width="38.2" height="18" fill="#2c6fbb"/><rect x="122.4" y="140" width="94.8" height="18" fill="#2c6fbb"/><rect x="221.4" y="140" width="7.2" height="18" fill="#2c6fbb"/><rect x="240.6" y="140" width="108.7" height="18" fill="#2c6fbb"/><rect x="352.7" y="140" width="147.7" height="18" fill="#2c6fbb"/><rect x="511.2" y="140" width="26.6" height="18" fill="#2c6fbb"/><rect x="542.6" y="140" width="16.9" height="18" fill="#2c6fbb"/><rect x="566.5" y="140" width="55.0" height="18" fill="#2c6fbb"/><rect x="629.0" y="140" width="6.4" height="18" fill="#2c6fbb"/><rect x="639.2" y="140" width="9.3" height="18" fill="#2c6fbb"/><rect x="653.6" y="140" width="23.5" height="18" fill="#2c6fbb"/><rect x="679.6" y="140" width="37.8" height="18" fill="#2c6fbb"/><rect x="726.4" y="140" width="26.5" height="18" fill="#2c6fbb"/><rect x="754.8" y="140" width="32.0" height="18" fill="#2c6fbb"/><rect x="790.0" y="140" width="18.1" height="18" fill="#2c6fbb"/><rect x="809.9" y="140" width="67.5" height="18" fill="#2c6fbb"/><rect x="882.4" y="140" width="14.8" height="18" fill="#2c6fbb"/><rect x="900.8" y="140" width="118.0" height="18" fill="#2c6fbb"/><rect x="1021.0" y="140" width="18.9" height="18" fill="#2c6fbb"/>
<text x="4" y="180" font-size="11" fill="#555">energy VAD</text><rect x="60.0" y="164" width="2.9" height="18" fill="#7f8c8d"/><rect x="63.3" y="164" width="7.8" height="18" fill="#7f8c8d"/><rect x="71.3" y="164" width="2.7" height="18" fill="#7f8c8d"/><rect x="74.1" y="164" width="1.0" height="18" fill="#7f8c8d"/><rect x="75.1" y="164" width="2.1" height="18" fill="#7f8c8d"/><rect x="77.3" y="164" width="1.0" height="18" fill="#7f8c8d"/><rect x="80.4" y="164" width="1.0" height="18" fill="#7f8c8d"/><rect x="81.4" y="164" width="1.0" height="18" fill="#7f8c8d"/><rect x="81.5" y="164" width="4.0" height="18" fill="#7f8c8d"/><rect x="88.2" y="164" width="5.6" height="18" fill="#7f8c8d"/><rect x="93.8" y="164" width="1.0" height="18" fill="#7f8c8d"/><rect x="94.0" y="164" width="1.0" height="18" fill="#7f8c8d"/><rect x="94.3" y="164" width="1.0" height="18" fill="#7f8c8d"/><rect x="94.7" y="164" width="1.0" height="18" fill="#7f8c8d"/><rect x="96.1" y="164" width="1.0" height="18" fill="#7f8c8d"/><rect x="97.2" y="164" width="11.6" height="18" fill="#7f8c8d"/><rect x="109.0" y="164" width="1.0" height="18" fill="#7f8c8d"/><rect x="110.3" y="164" width="1.0" height="18" fill="#7f8c8d"/><rect x="110.7" y="164" width="4.1" height="18" fill="#7f8c8d"/><rect x="115.4" y="164" width="1.1" height="18" fill="#7f8c8d"/><rect x="116.5" y="164" width="1.0" height="18" fill="#7f8c8d"/><rect x="116.9" y="164" width="1.0" height="18" fill="#7f8c8d"/><rect x="117.4" y="164" width="1.0" height="18" fill="#7f8c8d"/><rect x="123.1" y="164" width="5.9" height="18" fill="#7f8c8d"/><rect x="129.0" y="164" width="1.0" height="18" fill="#7f8c8d"/><rect x="129.2" y="164" width="1.9" height="18" fill="#7f8c8d"/><rect x="131.5" y="164" width="13.2" height="18" fill="#7f8c8d"/><rect x="144.8" y="164" width="1.0" height="18" fill="#7f8c8d"/><rect x="145.9" y="164" width="1.5" height="18" fill="#7f8c8d"/><rect x="147.5" y="164" width="8.7" height="18" fill="#7f8c8d"/><rect x="156.5" y="164" width="1.0" height="18" fill="#7f8c8d"/><rect x="157.3" y="164" width="3.7" height="18" fill="#7f8c8d"/><rect x="165.3" y="164" width="3.9" height="18" fill="#7f8c8d"/><rect x="169.4" y="164" width="6.3" height="18" fill="#7f8c8d"/><rect x="176.3" y="164" width="1.0" height="18" fill="#7f8c8d"/><rect x="177.5" y="164" width="3.1" height="18" fill="#7f8c8d"/><rect x="181.6" y="164" width="1.5" height="18" fill="#7f8c8d"/><rect x="184.2" y="164" width="1.0" height="18" fill="#7f8c8d"/><rect x="184.7" y="164" width="1.0" height="18" fill="#7f8c8d"/><rect x="186.2" y="164" width="1.0" height="18" fill="#7f8c8d"/><rect x="190.3" y="164" width="1.0" height="18" fill="#7f8c8d"/><rect x="190.7" y="164" width="1.0" height="18" fill="#7f8c8d"/><rect x="191.3" y="164" width="3.0" height="18" fill="#7f8c8d"/><rect x="194.4" y="164" width="1.0" height="18" fill="#7f8c8d"/><rect x="194.6" y="164" width="3.4" height="18" fill="#7f8c8d"/><rect x="198.1" y="164" width="1.0" height="18" fill="#7f8c8d"/><rect x="203.2" y="164" width="4.8" height="18" fill="#7f8c8d"/><rect x="208.0" y="164" width="1.2" height="18" fill="#7f8c8d"/><rect x="209.3" y="164" width="1.0" height="18" fill="#7f8c8d"/><rect x="209.4" y="164" width="1.0" height="18" fill="#7f8c8d"/><rect x="209.8" y="164" width="1.0" height="18" fill="#7f8c8d"/><rect x="210.0" y="164" width="1.0" height="18" fill="#7f8c8d"/><rect x="210.1" y="164" width="1.0" height="18" fill="#7f8c8d"/><rect x="210.6" y="164" width="3.4" height="18" fill="#7f8c8d"/><rect x="214.0" y="164" width="1.0" height="18" fill="#7f8c8d"/><rect x="214.8" y="164" width="1.1" height="18" fill="#7f8c8d"/><rect x="216.1" y="164" width="1.0" height="18" fill="#7f8c8d"/><rect x="216.7" y="164" width="1.0" height="18" fill="#7f8c8d"/><rect x="216.9" y="164" width="1.0" height="18" fill="#7f8c8d"/><rect x="217.6" y="164" width="1.0" height="18" fill="#7f8c8d"/><rect x="218.0" y="164" width="1.0" height="18" fill="#7f8c8d"/><rect x="221.9" y="164" width="2.1" height="18" fill="#7f8c8d"/><rect x="224.2" y="164" width="2.2" height="18" fill="#7f8c8d"/><rect x="226.5" y="164" width="1.7" height="18" fill="#7f8c8d"/><rect x="229.6" y="164" width="1.0" height="18" fill="#7f8c8d"/><rect x="230.4" y="164" width="1.0" height="18" fill="#7f8c8d"/><rect x="241.3" y="164" width="1.4" height="18" fill="#7f8c8d"/><rect x="243.1" y="164" width="2.9" height="18" fill="#7f8c8d"/><rect x="246.0" y="164" width="5.7" height="18" fill="#7f8c8d"/><rect x="251.9" y="164" width="2.2" height="18" fill="#7f8c8d"/><rect x="254.2" y="164" width="2.2" height="18" fill="#7f8c8d"/><rect x="256.8" y="164" width="1.7" height="18" fill="#7f8c8d"/><rect x="258.9" y="164" width="1.2" height="18" fill="#7f8c8d"/><rect x="260.7" y="164" width="1.7" height="18" fill="#7f8c8d"/><rect x="269.6" y="164" width="1.0" height="18" fill="#7f8c8d"/><rect x="270.4" y="164" width="1.0" height="18" fill="#7f8c8d"/><rect x="270.6" y="164" width="1.0" height="18" fill="#7f8c8d"/><rect x="270.8" y="164" width="1.1" height="18" fill="#7f8c8d"/><rect x="273.2" y="164" width="5.0" height="18" fill="#7f8c8d"/><rect x="278.2" y="164" width="1.0" height="18" fill="#7f8c8d"/><rect x="278.5" y="164" width="2.8" height="18" fill="#7f8c8d"/><rect x="281.4" y="164" width="1.7" height="18" fill="#7f8c8d"/><rect x="283.1" y="164" width="1.0" height="18" fill="#7f8c8d"/><rect x="290.1" y="164" width="3.7" height="18" fill="#7f8c8d"/><rect x="293.9" y="164" width="3.4" height="18" fill="#7f8c8d"/><rect x="297.3" y="164" width="1.0" height="18" fill="#7f8c8d"/><rect x="298.3" y="164" width="1.2" height="18" fill="#7f8c8d"/><rect x="299.6" y="164" width="2.5" height="18" fill="#7f8c8d"/><rect x="302.1" y="164" width="2.1" height="18" fill="#7f8c8d"/><rect x="304.4" y="164" width="1.0" height="18" fill="#7f8c8d"/><rect x="304.6" y="164" width="2.9" height="18" fill="#7f8c8d"/><rect x="307.8" y="164" width="1.5" height="18" fill="#7f8c8d"/><rect x="309.4" y="164" width="1.8" height="18" fill="#7f8c8d"/><rect x="311.2" y="164" width="1.0" height="18" fill="#7f8c8d"/><rect x="311.7" y="164" width="1.0" height="18" fill="#7f8c8d"/><rect x="313.3" y="164" width="1.0" height="18" fill="#7f8c8d"/><rect x="313.8" y="164" width="1.0" height="18" fill="#7f8c8d"/><rect x="314.2" y="164" width="1.5" height="18" fill="#7f8c8d"/><rect x="316.4" y="164" width="1.8" height="18" fill="#7f8c8d"/><rect x="318.5" y="164" width="1.0" height="18" fill="#7f8c8d"/><rect x="321.5" y="164" width="1.0" height="18" fill="#7f8c8d"/><rect x="322.6" y="164" width="1.3" height="18" fill="#7f8c8d"/><rect x="323.9" y="164" width="2.4" height="18" fill="#7f8c8d"/><rect x="326.5" y="164" width="1.3" height="18" fill="#7f8c8d"/><rect x="327.9" y="164" width="1.0" height="18" fill="#7f8c8d"/><rect x="328.9" y="164" width="1.0" height="18" fill="#7f8c8d"/><rect x="329.1" y="164" width="2.8" height="18" fill="#7f8c8d"/><rect x="332.5" y="164" width="1.0" height="18" fill="#7f8c8d"/><rect x="333.5" y="164" width="1.3" height="18" fill="#7f8c8d"/><rect x="336.2" y="164" width="1.0" height="18" fill="#7f8c8d"/><rect x="336.5" y="164" width="1.0" height="18" fill="#7f8c8d"/><rect x="337.3" y="164" width="6.2" height="18" fill="#7f8c8d"/><rect x="343.8" y="164" width="1.0" height="18" fill="#7f8c8d"/><rect x="344.0" y="164" width="1.0" height="18" fill="#7f8c8d"/><rect x="344.5" y="164" width="1.0" height="18" fill="#7f8c8d"/><rect x="345.2" y="164" width="1.0" height="18" fill="#7f8c8d"/><rect x="345.9" y="164" width="1.0" height="18" fill="#7f8c8d"/><rect x="354.2" y="164" width="1.0" height="18" fill="#7f8c8d"/><rect x="354.4" y="164" width="1.0" height="18" fill="#7f8c8d"/><rect x="354.8" y="164" width="1.0" height="18" fill="#7f8c8d"/><rect x="355.2" y="164" width="1.0" height="18" fill="#7f8c8d"/><rect x="356.8" y="164" width="2.1" height="18" fill="#7f8c8d"/><rect x="359.2" y="164" width="1.6" height="18" fill="#7f8c8d"/><rect x="360.9" y="164" width="1.8" height="18" fill="#7f8c8d"/><rect x="362.7" y="164" width="1.4" height="18" fill="#7f8c8d"/><rect x="364.2" y="164" width="1.0" height="18" fill="#7f8c8d"/><rect x="364.3" y="164" width="1.0" height="18" fill="#7f8c8d"/><rect x="365.0" y="164" width="1.0" height="18" fill="#7f8c8d"/><rect x="366.1" y="164" width="1.0" height="18" fill="#7f8c8d"/><rect x="373.2" y="164" width="1.3" height="18" fill="#7f8c8d"/><rect x="374.6" y="164" width="1.0" height="18" fill="#7f8c8d"/><rect x="374.8" y="164" width="1.0" height="18" fill="#7f8c8d"/><rect x="375.4" y="164" width="1.0" height="18" fill="#7f8c8d"/><rect x="376.0" y="164" width="1.0" height="18" fill="#7f8c8d"/><rect x="377.0" y="164" width="1.0" height="18" fill="#7f8c8d"/><rect x="377.7" y="164" width="1.0" height="18" fill="#7f8c8d"/><rect x="378.4" y="164" width="1.0" height="18" fill="#7f8c8d"/><rect x="384.4" y="164" width="1.4" height="18" fill="#7f8c8d"/><rect x="386.3" y="164" width="1.9" height="18" fill="#7f8c8d"/><rect x="388.2" y="164" width="1.0" height="18" fill="#7f8c8d"/><rect x="388.6" y="164" width="1.0" height="18" fill="#7f8c8d"/><rect x="388.8" y="164" width="1.0" height="18" fill="#7f8c8d"/><rect x="390.2" y="164" width="1.4" height="18" fill="#7f8c8d"/><rect x="392.1" y="164" width="4.4" height="18" fill="#7f8c8d"/><rect x="396.9" y="164" width="1.0" height="18" fill="#7f8c8d"/><rect x="397.1" y="164" width="1.0" height="18" fill="#7f8c8d"/><rect x="402.3" y="164" width="3.4" height="18" fill="#7f8c8d"/><rect x="406.4" y="164" width="1.8" height="18" fill="#7f8c8d"/><rect x="408.9" y="164" width="1.0" height="18" fill="#7f8c8d"/><rect x="410.5" y="164" width="1.0" height="18" fill="#7f8c8d"/><rect x="411.0" y="164" width="1.0" height="18" fill="#7f8c8d"/><rect x="411.6" y="164" width="1.0" height="18" fill="#7f8c8d"/><rect x="413.6" y="164" width="1.0" height="18" fill="#7f8c8d"/><rect x="414.1" y="164" width="1.0" height="18" fill="#7f8c8d"/><rect x="415.8" y="164" width="1.4" height="18" fill="#7f8c8d"/><rect x="417.3" y="164" width="1.0" height="18" fill="#7f8c8d"/><rect x="417.6" y="164" width="1.0" height="18" fill="#7f8c8d"/><rect x="417.9" y="164" width="1.0" height="18" fill="#7f8c8d"/><rect x="419.1" y="164" width="1.7" height="18" fill="#7f8c8d"/><rect x="421.0" y="164" width="1.0" height="18" fill="#7f8c8d"/><rect x="421.9" y="164" width="4.7" height="18" fill="#7f8c8d"/><rect x="426.6" y="164" width="1.0" height="18" fill="#7f8c8d"/><rect x="427.1" y="164" width="1.0" height="18" fill="#7f8c8d"/><rect x="427.9" y="164" width="1.0" height="18" fill="#7f8c8d"/><rect x="428.4" y="164" width="2.7" height="18" fill="#7f8c8d"/><rect x="431.3" y="164" width="1.0" height="18" fill="#7f8c8d"/><rect x="431.7" y="164" width="2.1" height="18" fill="#7f8c8d"/><rect x="434.3" y="164" width="1.0" height="18" fill="#7f8c8d"/><rect x="440.3" y="164" width="3.9" height="18" fill="#7f8c8d"/><rect x="444.5" y="164" width="2.8" height="18" fill="#7f8c8d"/><rect x="449.2" y="164" width="1.0" height="18" fill="#7f8c8d"/><rect x="449.7" y="164" width="1.0" height="18" fill="#7f8c8d"/><rect x="449.9" y="164" width="1.3" height="18" fill="#7f8c8d"/><rect x="454.0" y="164" width="1.8" height="18" fill="#7f8c8d"/><rect x="460.2" y="164" width="1.4" height="18" fill="#7f8c8d"/><rect x="461.7" y="164" width="1.0" height="18" fill="#7f8c8d"/><rect x="462.0" y="164" width="3.4" height="18" fill="#7f8c8d"/><rect x="465.9" y="164" width="1.8" height="18" fill="#7f8c8d"/><rect x="468.0" y="164" width="1.5" height="18" fill="#7f8c8d"/><rect x="469.8" y="164" width="6.2" height="18" fill="#7f8c8d"/><rect x="476.5" y="164" width="1.1" height="18" fill="#7f8c8d"/><rect x="477.7" y="164" width="1.0" height="18" fill="#7f8c8d"/><rect x="482.2" y="164" width="4.7" height="18" fill="#7f8c8d"/><rect x="487.0" y="164" width="1.0" height="18" fill="#7f8c8d"/><rect x="488.1" y="164" width="2.9" height="18" fill="#7f8c8d"/><rect x="491.1" y="164" width="1.3" height="18" fill="#7f8c8d"/><rect x="492.5" y="164" width="1.0" height="18" fill="#7f8c8d"/><rect x="494.3" y="164" width="5.5" height="18" fill="#7f8c8d"/><rect x="511.6" y="164" width="1.5" height="18" fill="#7f8c8d"/><rect x="513.8" y="164" width="1.3" height="18" fill="#7f8c8d"/><rect x="515.3" y="164" width="1.0" height="18" fill="#7f8c8d"/><rect x="515.7" y="164" width="3.1" height="18" fill="#7f8c8d"/><rect x="518.9" y="164" width="2.3" height="18" fill="#7f8c8d"/><rect x="521.5" y="164" width="2.8" height="18" fill="#7f8c8d"/><rect x="524.8" y="164" width="9.5" height="18" fill="#7f8c8d"/><rect x="534.4" y="164" width="1.0" height="18" fill="#7f8c8d"/><rect x="534.6" y="164" width="1.0" height="18" fill="#7f8c8d"/><rect x="535.4" y="164" width="1.0" height="18" fill="#7f8c8d"/><rect x="535.5" y="164" width="1.0" height="18" fill="#7f8c8d"/><rect x="543.2" y="164" width="1.0" height="18" fill="#7f8c8d"/><rect x="543.4" y="164" width="4.1" height="18" fill="#7f8c8d"/><rect x="547.6" y="164" width="5.8" height="18" fill="#7f8c8d"/><rect x="553.4" y="164" width="1.0" height="18" fill="#7f8c8d"/><rect x="553.7" y="164" width="4.8" height="18" fill="#7f8c8d"/><rect x="558.7" y="164" width="1.0" height="18" fill="#7f8c8d"/><rect x="567.2" y="164" width="9.9" height="18" fill="#7f8c8d"/><rect x="577.2" y="164" width="1.0" height="18" fill="#7f8c8d"/><rect x="578.2" y="164" width="3.1" height="18" fill="#7f8c8d"/><rect x="581.3" y="164" width="11.8" height="18" fill="#7f8c8d"/><rect x="593.4" y="164" width="1.0" height="18" fill="#7f8c8d"/><rect x="599.8" y="164" width="4.9" height="18" fill="#7f8c8d"/><rect x="604.8" y="164" width="1.0" height="18" fill="#7f8c8d"/><rect x="605.1" y="164" width="1.4" height="18" fill="#7f8c8d"/><rect x="609.5" y="164" width="1.0" height="18" fill="#7f8c8d"/><rect x="609.6" y="164" width="1.2" height="18" fill="#7f8c8d"/><rect x="610.9" y="164" width="1.0" height="18" fill="#7f8c8d"/><rect x="611.2" y="164" width="9.5" height="18" fill="#7f8c8d"/><rect x="620.8" y="164" width="1.0" height="18" fill="#7f8c8d"/><rect x="630.0" y="164" width="1.0" height="18" fill="#7f8c8d"/><rect x="630.2" y="164" width="4.5" height="18" fill="#7f8c8d"/><rect x="634.8" y="164" width="1.0" height="18" fill="#7f8c8d"/><rect x="637.0" y="164" width="1.0" height="18" fill="#7f8c8d"/><rect x="637.6" y="164" width="1.0" height="18" fill="#7f8c8d"/><rect x="637.9" y="164" width="1.0" height="18" fill="#7f8c8d"/><rect x="638.4" y="164" width="1.0" height="18" fill="#7f8c8d"/><rect x="640.1" y="164" width="1.0" height="18" fill="#7f8c8d"/><rect x="640.2" y="164" width="1.0" height="18" fill="#7f8c8d"/><rect x="640.5" y="164" width="1.0" height="18" fill="#7f8c8d"/><rect x="641.1" y="164" width="7.2" height="18" fill="#7f8c8d"/><rect x="648.5" y="164" width="1.0" height="18" fill="#7f8c8d"/><rect x="655.5" y="164" width="3.1" height="18" fill="#7f8c8d"/><rect x="658.8" y="164" width="2.3" height="18" fill="#7f8c8d"/><rect x="661.1" y="164" width="1.8" height="18" fill="#7f8c8d"/><rect x="663.7" y="164" width="2.3" height="18" fill="#7f8c8d"/><rect x="666.4" y="164" width="1.4" height="18" fill="#7f8c8d"/><rect x="667.8" y="164" width="2.0" height="18" fill="#7f8c8d"/><rect x="670.4" y="164" width="1.0" height="18" fill="#7f8c8d"/><rect x="671.6" y="164" width="2.8" height="18" fill="#7f8c8d"/><rect x="675.0" y="164" width="1.0" height="18" fill="#7f8c8d"/><rect x="675.6" y="164" width="1.0" height="18" fill="#7f8c8d"/><rect x="682.4" y="164" width="1.0" height="18" fill="#7f8c8d"/><rect x="682.6" y="164" width="1.0" height="18" fill="#7f8c8d"/><rect x="683.3" y="164" width="1.0" height="18" fill="#7f8c8d"/><rect x="683.5" y="164" width="1.0" height="18" fill="#7f8c8d"/><rect x="684.1" y="164" width="5.0" height="18" fill="#7f8c8d"/><rect x="689.2" y="164" width="5.0" height="18" fill="#7f8c8d"/><rect x="694.5" y="164" width="2.1" height="18" fill="#7f8c8d"/><rect x="702.6" y="164" width="1.0" height="18" fill="#7f8c8d"/><rect x="703.6" y="164" width="1.8" height="18" fill="#7f8c8d"/><rect x="705.5" y="164" width="5.0" height="18" fill="#7f8c8d"/><rect x="710.9" y="164" width="1.6" height="18" fill="#7f8c8d"/><rect x="712.7" y="164" width="1.0" height="18" fill="#7f8c8d"/><rect x="714.0" y="164" width="2.4" height="18" fill="#7f8c8d"/><rect x="716.5" y="164" width="1.0" height="18" fill="#7f8c8d"/><rect x="727.1" y="164" width="2.6" height="18" fill="#7f8c8d"/><rect x="729.8" y="164" width="1.0" height="18" fill="#7f8c8d"/><rect x="730.5" y="164" width="1.0" height="18" fill="#7f8c8d"/><rect x="730.8" y="164" width="1.0" height="18" fill="#7f8c8d"/><rect x="731.2" y="164" width="1.0" height="18" fill="#7f8c8d"/><rect x="731.7" y="164" width="1.2" height="18" fill="#7f8c8d"/><rect x="733.1" y="164" width="1.0" height="18" fill="#7f8c8d"/><rect x="733.8" y="164" width="1.0" height="18" fill="#7f8c8d"/><rect x="735.3" y="164" width="1.0" height="18" fill="#7f8c8d"/><rect x="735.7" y="164" width="2.6" height="18" fill="#7f8c8d"/><rect x="739.1" y="164" width="2.3" height="18" fill="#7f8c8d"/><rect x="741.5" y="164" width="1.0" height="18" fill="#7f8c8d"/><rect x="741.8" y="164" width="2.2" height="18" fill="#7f8c8d"/><rect x="744.2" y="164" width="1.9" height="18" fill="#7f8c8d"/><rect x="746.6" y="164" width="1.0" height="18" fill="#7f8c8d"/><rect x="746.7" y="164" width="1.0" height="18" fill="#7f8c8d"/><rect x="747.2" y="164" width="1.5" height="18" fill="#7f8c8d"/><rect x="748.8" y="164" width="1.0" height="18" fill="#7f8c8d"/><rect x="749.2" y="164" width="2.3" height="18" fill="#7f8c8d"/><rect x="756.2" y="164" width="3.4" height="18" fill="#7f8c8d"/><rect x="760.1" y="164" width="7.3" height="18" fill="#7f8c8d"/><rect x="767.5" y="164" width="6.8" height="18" fill="#7f8c8d"/><rect x="774.4" y="164" width="3.4" height="18" fill="#7f8c8d"/><rect x="778.9" y="164" width="2.5" height="18" fill="#7f8c8d"/><rect x="781.5" y="164" width="1.8" height="18" fill="#7f8c8d"/><rect x="783.4" y="164" width="1.0" height="18" fill="#7f8c8d"/><rect x="783.8" y="164" width="1.0" height="18" fill="#7f8c8d"/><rect x="785.0" y="164" width="1.0" height="18" fill="#7f8c8d"/><rect x="790.7" y="164" width="6.3" height="18" fill="#7f8c8d"/><rect x="797.0" y="164" width="1.0" height="18" fill="#7f8c8d"/><rect x="797.4" y="164" width="3.0" height="18" fill="#7f8c8d"/><rect x="800.5" y="164" width="1.0" height="18" fill="#7f8c8d"/><rect x="801.1" y="164" width="2.0" height="18" fill="#7f8c8d"/><rect x="803.4" y="164" width="1.4" height="18" fill="#7f8c8d"/><rect x="805.4" y="164" width="1.0" height="18" fill="#7f8c8d"/><rect x="806.5" y="164" width="1.0" height="18" fill="#7f8c8d"/><rect x="810.9" y="164" width="1.0" height="18" fill="#7f8c8d"/><rect x="811.0" y="164" width="1.8" height="18" fill="#7f8c8d"/><rect x="812.9" y="164" width="1.0" height="18" fill="#7f8c8d"/><rect x="813.3" y="164" width="2.0" height="18" fill="#7f8c8d"/><rect x="815.5" y="164" width="1.0" height="18" fill="#7f8c8d"/><rect x="815.7" y="164" width="1.0" height="18" fill="#7f8c8d"/><rect x="816.2" y="164" width="1.0" height="18" fill="#7f8c8d"/><rect x="817.4" y="164" width="1.1" height="18" fill="#7f8c8d"/><rect x="818.8" y="164" width="1.1" height="18" fill="#7f8c8d"/><rect x="819.9" y="164" width="1.0" height="18" fill="#7f8c8d"/><rect x="820.4" y="164" width="1.0" height="18" fill="#7f8c8d"/><rect x="821.3" y="164" width="1.0" height="18" fill="#7f8c8d"/><rect x="822.2" y="164" width="2.9" height="18" fill="#7f8c8d"/><rect x="825.1" y="164" width="1.0" height="18" fill="#7f8c8d"/><rect x="825.8" y="164" width="1.0" height="18" fill="#7f8c8d"/><rect x="826.8" y="164" width="1.0" height="18" fill="#7f8c8d"/><rect x="828.5" y="164" width="1.0" height="18" fill="#7f8c8d"/><rect x="829.1" y="164" width="1.0" height="18" fill="#7f8c8d"/><rect x="829.3" y="164" width="1.0" height="18" fill="#7f8c8d"/><rect x="830.4" y="164" width="3.1" height="18" fill="#7f8c8d"/><rect x="833.6" y="164" width="1.0" height="18" fill="#7f8c8d"/><rect x="833.9" y="164" width="1.0" height="18" fill="#7f8c8d"/><rect x="834.9" y="164" width="1.0" height="18" fill="#7f8c8d"/><rect x="835.5" y="164" width="1.1" height="18" fill="#7f8c8d"/><rect x="836.9" y="164" width="2.8" height="18" fill="#7f8c8d"/><rect x="839.8" y="164" width="4.5" height="18" fill="#7f8c8d"/><rect x="844.3" y="164" width="1.0" height="18" fill="#7f8c8d"/><rect x="845.5" y="164" width="1.0" height="18" fill="#7f8c8d"/><rect x="845.9" y="164" width="1.0" height="18" fill="#7f8c8d"/><rect x="849.5" y="164" width="1.0" height="18" fill="#7f8c8d"/><rect x="850.1" y="164" width="1.0" height="18" fill="#7f8c8d"/><rect x="850.4" y="164" width="1.6" height="18" fill="#7f8c8d"/><rect x="855.8" y="164" width="1.9" height="18" fill="#7f8c8d"/><rect x="858.0" y="164" width="1.3" height="18" fill="#7f8c8d"/><rect x="859.4" y="164" width="9.7" height="18" fill="#7f8c8d"/><rect x="870.3" y="164" width="3.6" height="18" fill="#7f8c8d"/><rect x="874.1" y="164" width="2.4" height="18" fill="#7f8c8d"/><rect x="883.1" y="164" width="1.0" height="18" fill="#7f8c8d"/><rect x="884.8" y="164" width="1.9" height="18" fill="#7f8c8d"/><rect x="887.7" y="164" width="1.0" height="18" fill="#7f8c8d"/><rect x="888.4" y="164" width="1.9" height="18" fill="#7f8c8d"/><rect x="890.4" y="164" width="3.9" height="18" fill="#7f8c8d"/><rect x="894.4" y="164" width="1.0" height="18" fill="#7f8c8d"/><rect x="895.2" y="164" width="1.0" height="18" fill="#7f8c8d"/><rect x="901.4" y="164" width="1.0" height="18" fill="#7f8c8d"/><rect x="902.9" y="164" width="2.8" height="18" fill="#7f8c8d"/><rect x="905.8" y="164" width="1.0" height="18" fill="#7f8c8d"/><rect x="905.9" y="164" width="1.1" height="18" fill="#7f8c8d"/><rect x="907.9" y="164" width="1.0" height="18" fill="#7f8c8d"/><rect x="908.3" y="164" width="1.0" height="18" fill="#7f8c8d"/><rect x="909.8" y="164" width="1.0" height="18" fill="#7f8c8d"/><rect x="913.1" y="164" width="2.5" height="18" fill="#7f8c8d"/><rect x="915.7" y="164" width="1.0" height="18" fill="#7f8c8d"/><rect x="916.5" y="164" width="1.0" height="18" fill="#7f8c8d"/><rect x="916.8" y="164" width="3.0" height="18" fill="#7f8c8d"/><rect x="919.9" y="164" width="1.0" height="18" fill="#7f8c8d"/><rect x="920.5" y="164" width="1.1" height="18" fill="#7f8c8d"/><rect x="921.7" y="164" width="2.9" height="18" fill="#7f8c8d"/><rect x="925.3" y="164" width="1.8" height="18" fill="#7f8c8d"/><rect x="930.7" y="164" width="1.0" height="18" fill="#7f8c8d"/><rect x="931.7" y="164" width="2.1" height="18" fill="#7f8c8d"/><rect x="934.1" y="164" width="1.0" height="18" fill="#7f8c8d"/><rect x="935.6" y="164" width="1.6" height="18" fill="#7f8c8d"/><rect x="937.2" y="164" width="1.0" height="18" fill="#7f8c8d"/><rect x="937.7" y="164" width="1.5" height="18" fill="#7f8c8d"/><rect x="939.4" y="164" width="1.0" height="18" fill="#7f8c8d"/><rect x="940.1" y="164" width="1.8" height="18" fill="#7f8c8d"/><rect x="942.1" y="164" width="1.0" height="18" fill="#7f8c8d"/><rect x="943.0" y="164" width="1.0" height="18" fill="#7f8c8d"/><rect x="943.9" y="164" width="1.0" height="18" fill="#7f8c8d"/><rect x="944.0" y="164" width="1.0" height="18" fill="#7f8c8d"/><rect x="944.3" y="164" width="1.0" height="18" fill="#7f8c8d"/><rect x="944.6" y="164" width="1.3" height="18" fill="#7f8c8d"/><rect x="945.9" y="164" width="2.2" height="18" fill="#7f8c8d"/><rect x="948.9" y="164" width="1.0" height="18" fill="#7f8c8d"/><rect x="949.4" y="164" width="1.0" height="18" fill="#7f8c8d"/><rect x="949.6" y="164" width="1.2" height="18" fill="#7f8c8d"/><rect x="951.0" y="164" width="2.4" height="18" fill="#7f8c8d"/><rect x="953.5" y="164" width="1.0" height="18" fill="#7f8c8d"/><rect x="958.3" y="164" width="1.0" height="18" fill="#7f8c8d"/><rect x="959.0" y="164" width="1.0" height="18" fill="#7f8c8d"/><rect x="960.6" y="164" width="1.2" height="18" fill="#7f8c8d"/><rect x="962.0" y="164" width="1.0" height="18" fill="#7f8c8d"/><rect x="962.4" y="164" width="2.5" height="18" fill="#7f8c8d"/><rect x="965.0" y="164" width="1.0" height="18" fill="#7f8c8d"/><rect x="966.3" y="164" width="2.2" height="18" fill="#7f8c8d"/><rect x="968.7" y="164" width="1.0" height="18" fill="#7f8c8d"/><rect x="969.1" y="164" width="1.0" height="18" fill="#7f8c8d"/><rect x="969.8" y="164" width="2.0" height="18" fill="#7f8c8d"/><rect x="971.8" y="164" width="1.0" height="18" fill="#7f8c8d"/><rect x="974.5" y="164" width="2.0" height="18" fill="#7f8c8d"/><rect x="976.7" y="164" width="1.0" height="18" fill="#7f8c8d"/><rect x="976.8" y="164" width="1.0" height="18" fill="#7f8c8d"/><rect x="977.0" y="164" width="1.0" height="18" fill="#7f8c8d"/><rect x="977.3" y="164" width="1.0" height="18" fill="#7f8c8d"/><rect x="978.9" y="164" width="1.0" height="18" fill="#7f8c8d"/><rect x="980.1" y="164" width="2.2" height="18" fill="#7f8c8d"/><rect x="986.8" y="164" width="1.0" height="18" fill="#7f8c8d"/><rect x="987.7" y="164" width="2.9" height="18" fill="#7f8c8d"/><rect x="990.7" y="164" width="2.0" height="18" fill="#7f8c8d"/><rect x="992.8" y="164" width="1.0" height="18" fill="#7f8c8d"/><rect x="994.2" y="164" width="1.1" height="18" fill="#7f8c8d"/><rect x="996.3" y="164" width="1.0" height="18" fill="#7f8c8d"/><rect x="997.3" y="164" width="2.3" height="18" fill="#7f8c8d"/><rect x="999.8" y="164" width="1.0" height="18" fill="#7f8c8d"/><rect x="1000.2" y="164" width="1.0" height="18" fill="#7f8c8d"/><rect x="1000.7" y="164" width="1.1" height="18" fill="#7f8c8d"/><rect x="1002.0" y="164" width="1.0" height="18" fill="#7f8c8d"/><rect x="1003.1" y="164" width="1.0" height="18" fill="#7f8c8d"/><rect x="1003.4" y="164" width="1.3" height="18" fill="#7f8c8d"/><rect x="1004.7" y="164" width="4.3" height="18" fill="#7f8c8d"/><rect x="1009.2" y="164" width="1.0" height="18" fill="#7f8c8d"/><rect x="1009.4" y="164" width="6.7" height="18" fill="#7f8c8d"/><rect x="1016.5" y="164" width="1.5" height="18" fill="#7f8c8d"/><rect x="1022.4" y="164" width="1.0" height="18" fill="#7f8c8d"/><rect x="1022.5" y="164" width="5.0" height="18" fill="#7f8c8d"/><rect x="1027.6" y="164" width="1.0" height="18" fill="#7f8c8d"/><rect x="1028.7" y="164" width="10.3" height="18" fill="#7f8c8d"/><rect x="1039.2" y="164" width="1.0" height="18" fill="#7f8c8d"/>
<text x="8" y="230" font-size="11" fill="#555">IoU vs lag</text>
<line x1="60" y1="340" x2="1040" y2="340" stroke="#ddd"/>
<line x1="550.0" y1="280" x2="550.0" y2="340" stroke="#bbb" stroke-dasharray="3,3"/>
<text x="550.0" y="355" font-size="10" fill="#999" text-anchor="middle">0</text>
<polyline points="60.0,286.9 61.0,286.9 62.0,286.9 62.9,286.9 63.9,286.9 64.9,286.9 65.9,286.9 66.9,286.9 67.8,286.9 68.8,286.9 69.8,286.9 70.8,286.9 71.8,286.9 72.7,286.9 73.7,286.9 74.7,286.9 75.7,286.9 76.7,286.8 77.6,286.8 78.6,286.8 79.6,286.8 80.6,286.8 81.6,286.8 82.5,286.8 83.5,286.8 84.5,286.8 85.5,286.8 86.5,286.7 87.4,286.7 88.4,286.7 89.4,286.7 90.4,286.7 91.4,286.7 92.3,286.7 93.3,286.7 94.3,286.7 95.3,286.7 96.3,286.6 97.2,286.6 98.2,286.6 99.2,286.6 100.2,286.6 101.2,286.6 102.1,286.6 103.1,286.6 104.1,286.6 105.1,286.6 106.1,286.6 107.0,286.6 108.0,286.6 109.0,286.6 110.0,286.6 111.0,286.6 111.9,286.6 112.9,286.6 113.9,286.6 114.9,286.6 115.9,286.6 116.8,286.6 117.8,286.6 118.8,286.6 119.8,286.6 120.8,286.6 121.7,286.6 122.7,286.6 123.7,286.6 124.7,286.6 125.7,286.5 126.6,286.5 127.6,286.5 128.6,286.5 129.6,286.5 130.6,286.5 131.5,286.5 132.5,286.5 133.5,286.5 134.5,286.5 135.5,286.5 136.4,286.5 137.4,286.5 138.4,286.5 139.4,286.5 140.4,286.5 141.3,286.5 142.3,286.5 143.3,286.5 144.3,286.5 145.3,286.5 146.2,286.5 147.2,286.5 148.2,286.5 149.2,286.5 150.2,286.5 151.1,286.5 152.1,286.5 153.1,286.5 154.1,286.5 155.1,286.5 156.0,286.5 157.0,286.5 158.0,286.5 159.0,286.5 160.0,286.5 160.9,286.5 161.9,286.5 162.9,286.5 163.9,286.5 164.9,286.4 165.8,286.4 166.8,286.4 167.8,286.4 168.8,286.4 169.8,286.4 170.7,286.4 171.7,286.4 172.7,286.4 173.7,286.4 174.7,286.3 175.6,286.3 176.6,286.3 177.6,286.3 178.6,286.3 179.6,286.3 180.5,286.3 181.5,286.3 182.5,286.3 183.5,286.3 184.5,286.2 185.4,286.2 186.4,286.2 187.4,286.2 188.4,286.2 189.4,286.2 190.3,286.1 191.3,286.1 192.3,286.1 193.3,286.1 194.3,286.1 195.2,286.1 196.2,286.1 197.2,286.1 198.2,286.1 199.2,286.1 200.1,286.0 201.1,286.0 202.1,286.0 203.1,286.0 204.1,286.0 205.0,286.0 206.0,286.0 207.0,286.0 208.0,286.0 209.0,286.0 209.9,286.0 210.9,286.0 211.9,286.0 212.9,286.0 213.9,286.0 214.8,286.0 215.8,286.0 216.8,285.9 217.8,285.9 218.8,285.9 219.7,285.9 220.7,285.9 221.7,285.9 222.7,285.9 223.7,285.9 224.6,285.9 225.6,285.9 226.6,285.9 227.6,285.9 228.6,285.9 229.5,285.9 230.5,285.9 231.5,285.9 232.5,285.9 233.5,285.9 234.4,285.9 235.4,285.9 236.4,285.9 237.4,285.9 238.4,285.9 239.3,285.9 240.3,285.9 241.3,285.9 242.3,285.9 243.3,285.9 244.2,285.9 245.2,285.9 246.2,285.9 247.2,285.9 248.2,285.9 249.1,285.9 250.1,285.9 251.1,285.9 252.1,285.9 253.1,285.9 254.0,285.9 255.0,285.9 256.0,285.9 257.0,285.9 258.0,285.9 258.9,285.9 259.9,285.9 260.9,285.9 261.9,285.9 262.9,285.9 263.8,285.9 264.8,285.9 265.8,285.8 266.8,285.8 267.8,285.8 268.7,285.8 269.7,285.8 270.7,285.8 271.7,285.8 272.7,285.8 273.6,285.8 274.6,285.8 275.6,285.8 276.6,285.7 277.6,285.7 278.5,285.7 279.5,285.7 280.5,285.7 281.5,285.7 282.5,285.7 283.4,285.7 284.4,285.7 285.4,285.7 286.4,285.7 287.4,285.7 288.3,285.7 289.3,285.7 290.3,285.7 291.3,285.7 292.3,285.7 293.2,285.7 294.2,285.7 295.2,285.7 296.2,285.7 297.2,285.8 298.1,285.8 299.1,285.8 300.1,285.8 301.1,285.8 302.1,285.8 303.0,285.8 304.0,285.8 305.0,285.8 306.0,285.8 307.0,285.9 307.9,285.9 308.9,285.9 309.9,285.9 310.9,285.9 311.9,285.9 312.8,285.9 313.8,286.0 314.8,286.0 315.8,286.0 316.8,286.0 317.7,286.0 318.7,286.0 319.7,286.0 320.7,286.0 321.7,286.1 322.6,286.1 323.6,286.1 324.6,286.1 325.6,286.1 326.6,286.1 327.5,286.1 328.5,286.1 329.5,286.1 330.5,286.1 331.5,286.1 332.4,286.1 333.4,286.1 334.4,286.1 335.4,286.1 336.4,286.1 337.3,286.1 338.3,286.1 339.3,286.1 340.3,286.1 341.3,286.1 342.2,286.1 343.2,286.1 344.2,286.1 345.2,286.1 346.2,286.1 347.1,286.2 348.1,286.2 349.1,286.2 350.1,286.2 351.1,286.2 352.0,286.2 353.0,286.2 354.0,286.2 355.0,286.2 356.0,286.2 356.9,286.2 357.9,286.2 358.9,286.2 359.9,286.2 360.9,286.2 361.8,286.2 362.8,286.2 363.8,286.2 364.8,286.2 365.8,286.2 366.7,286.3 367.7,286.3 368.7,286.3 369.7,286.3 370.7,286.3 371.6,286.3 372.6,286.3 373.6,286.3 374.6,286.3 375.6,286.3 376.5,286.3 377.5,286.3 378.5,286.4 379.5,286.4 380.5,286.4 381.4,286.4 382.4,286.4 383.4,286.4 384.4,286.4 385.4,286.4 386.3,286.4 387.3,286.4 388.3,286.4 389.3,286.4 390.3,286.4 391.2,286.4 392.2,286.4 393.2,286.4 394.2,286.4 395.2,286.4 396.1,286.4 397.1,286.4 398.1,286.4 399.1,286.4 400.1,286.4 401.0,286.4 402.0,286.4 403.0,286.4 404.0,286.4 405.0,286.4 405.9,286.4 406.9,286.4 407.9,286.4 408.9,286.4 409.9,286.4 410.8,286.4 411.8,286.4 412.8,286.4 413.8,286.5 414.8,286.5 415.7,286.5 416.7,286.5 417.7,286.5 418.7,286.5 419.7,286.5 420.6,286.5 421.6,286.5 422.6,286.5 423.6,286.6 424.6,286.6 425.5,286.6 426.5,286.6 427.5,286.6 428.5,286.6 429.5,286.6 430.4,286.6 431.4,286.6 432.4,286.6 433.4,286.6 434.4,286.6 435.3,286.6 436.3,286.6 437.3,286.6 438.3,286.6 439.3,286.6 440.2,286.6 441.2,286.6 442.2,286.6 443.2,286.6 444.2,286.6 445.1,286.6 446.1,286.6 447.1,286.6 448.1,286.5 449.1,286.5 450.0,286.5 451.0,286.5 452.0,286.5 453.0,286.5 454.0,286.5 454.9,286.5 455.9,286.5 456.9,286.5 457.9,286.5 458.9,286.5 459.8,286.5 460.8,286.5 461.8,286.4 462.8,286.4 463.8,286.4 464.7,286.4 465.7,286.4 466.7,286.4 467.7,286.4 468.7,286.4 469.6,286.4 470.6,286.4 471.6,286.3 472.6,286.3 473.6,286.3 474.5,286.3 475.5,286.3 476.5,286.3 477.5,286.3 478.5,286.3 479.4,286.3 480.4,286.3 481.4,286.2 482.4,286.2 483.4,286.2 484.3,286.2 485.3,286.2 486.3,286.2 487.3,286.2 488.3,286.2 489.2,286.2 490.2,286.2 491.2,286.2 492.2,286.1 493.2,286.1 494.1,286.1 495.1,286.1 496.1,286.1 497.1,286.1 498.1,286.1 499.0,286.1 500.0,286.1 501.0,286.1 502.0,286.0 503.0,286.0 503.9,286.0 504.9,286.0 505.9,286.0 506.9,286.0 507.9,286.0 508.8,286.0 509.8,286.0 510.8,286.0 511.8,286.0 512.8,286.0 513.7,286.0 514.7,286.0 515.7,286.0 516.7,286.0 517.7,286.0 518.6,286.0 519.6,286.0 520.6,286.0 521.6,286.0 522.6,286.0 523.5,286.0 524.5,286.0 525.5,286.0 526.5,286.0 527.5,286.0 528.4,286.0 529.4,286.0 530.4,286.0 531.4,286.0 532.4,286.0 533.3,286.0 534.3,286.0 535.3,286.0 536.3,286.0 537.3,285.9 538.2,285.9 539.2,285.9 540.2,285.9 541.2,285.9 542.2,285.9 543.1,285.9 544.1,285.9 545.1,285.9 546.1,285.9 547.1,285.9 548.0,285.9 549.0,285.9 550.0,285.8 551.0,285.8 552.0,285.8 552.9,285.8 553.9,285.8 554.9,285.9 555.9,285.9 556.9,285.9 557.8,285.9 558.8,285.9 559.8,285.9 560.8,285.9 561.8,285.9 562.7,285.9 563.7,285.9 564.7,285.9 565.7,285.8 566.7,285.8 567.6,285.8 568.6,285.8 569.6,285.8 570.6,285.8 571.6,285.8 572.5,285.8 573.5,285.8 574.5,285.8 575.5,285.8 576.5,285.8 577.4,285.8 578.4,285.7 579.4,285.7 580.4,285.7 581.4,285.7 582.3,285.7 583.3,285.7 584.3,285.7 585.3,285.7 586.3,285.6 587.2,285.6 588.2,285.6 589.2,285.5 590.2,285.5 591.2,285.5 592.1,285.4 593.1,285.4 594.1,285.4 595.1,285.3 596.1,285.3 597.0,285.3 598.0,285.2 599.0,285.2 600.0,285.1 601.0,285.1 601.9,285.1 602.9,285.0 603.9,285.0 604.9,284.9 605.9,284.9 606.8,284.9 607.8,284.8 608.8,284.8 609.8,284.7 610.8,284.7 611.7,284.6 612.7,284.6 613.7,284.5 614.7,284.5 615.7,284.5 616.6,284.4 617.6,284.4 618.6,284.3 619.6,284.3 620.6,284.2 621.5,284.2 622.5,284.1 623.5,284.0 624.5,284.0 625.5,283.9 626.4,283.9 627.4,283.8 628.4,283.8 629.4,283.7 630.4,283.7 631.3,283.6 632.3,283.6 633.3,283.5 634.3,283.4 635.3,283.4 636.2,283.3 637.2,283.3 638.2,283.2 639.2,283.2 640.2,283.1 641.1,283.0 642.1,283.0 643.1,282.9 644.1,282.8 645.1,282.7 646.0,282.7 647.0,282.6 648.0,282.5 649.0,282.4 650.0,282.4 650.9,282.3 651.9,282.2 652.9,282.1 653.9,282.1 654.9,282.0 655.8,281.9 656.8,281.8 657.8,281.7 658.8,281.7 659.8,281.6 660.7,281.5 661.7,281.4 662.7,281.3 663.7,281.2 664.7,281.1 665.6,281.1 666.6,281.0 667.6,280.9 668.6,280.8 669.6,280.8 670.5,280.7 671.5,280.6 672.5,280.5 673.5,280.4 674.5,280.4 675.4,280.3 676.4,280.2 677.4,280.2 678.4,280.1 679.4,280.1 680.3,280.0 681.3,280.0 682.3,280.0 683.3,280.0 684.3,280.0 685.2,280.0 686.2,280.0 687.2,280.0 688.2,280.1 689.2,280.1 690.1,280.1 691.1,280.2 692.1,280.3 693.1,280.3 694.1,280.4 695.0,280.5 696.0,280.5 697.0,280.6 698.0,280.7 699.0,280.8 699.9,280.9 700.9,280.9 701.9,281.0 702.9,281.1 703.9,281.2 704.8,281.3 705.8,281.3 706.8,281.4 707.8,281.5 708.8,281.6 709.7,281.6 710.7,281.7 711.7,281.8 712.7,281.9 713.7,281.9 714.6,282.0 715.6,282.1 716.6,282.2 717.6,282.3 718.6,282.3 719.5,282.4 720.5,282.5 721.5,282.6 722.5,282.6 723.5,282.7 724.4,282.8 725.4,282.9 726.4,282.9 727.4,283.0 728.4,283.1 729.3,283.2 730.3,283.3 731.3,283.3 732.3,283.4 733.3,283.5 734.2,283.6 735.2,283.6 736.2,283.7 737.2,283.8 738.2,283.8 739.1,283.9 740.1,283.9 741.1,284.0 742.1,284.0 743.1,284.1 744.0,284.1 745.0,284.2 746.0,284.2 747.0,284.3 748.0,284.3 748.9,284.4 749.9,284.4 750.9,284.5 751.9,284.5 752.9,284.5 753.8,284.6 754.8,284.6 755.8,284.7 756.8,284.7 757.8,284.8 758.7,284.8 759.7,284.9 760.7,284.9 761.7,285.0 762.7,285.0 763.6,285.1 764.6,285.1 765.6,285.2 766.6,285.2 767.6,285.2 768.5,285.3 769.5,285.3 770.5,285.4 771.5,285.4 772.5,285.5 773.4,285.5 774.4,285.6 775.4,285.6 776.4,285.7 777.4,285.7 778.3,285.7 779.3,285.8 780.3,285.8 781.3,285.9 782.3,285.9 783.2,285.9 784.2,286.0 785.2,286.0 786.2,286.0 787.2,286.1 788.1,286.1 789.1,286.1 790.1,286.1 791.1,286.2 792.1,286.2 793.0,286.2 794.0,286.2 795.0,286.2 796.0,286.3 797.0,286.3 797.9,286.3 798.9,286.3 799.9,286.3 800.9,286.4 801.9,286.4 802.8,286.4 803.8,286.4 804.8,286.4 805.8,286.4 806.8,286.4 807.7,286.4 808.7,286.4 809.7,286.4 810.7,286.4 811.7,286.4 812.6,286.4 813.6,286.4 814.6,286.4 815.6,286.4 816.6,286.4 817.5,286.5 818.5,286.5 819.5,286.5 820.5,286.5 821.5,286.5 822.4,286.5 823.4,286.5 824.4,286.5 825.4,286.5 826.4,286.5 827.3,286.5 828.3,286.5 829.3,286.5 830.3,286.5 831.3,286.4 832.2,286.4 833.2,286.4 834.2,286.4 835.2,286.4 836.2,286.4 837.1,286.4 838.1,286.4 839.1,286.4 840.1,286.4 841.1,286.4 842.0,286.4 843.0,286.4 844.0,286.4 845.0,286.4 846.0,286.4 846.9,286.4 847.9,286.4 848.9,286.4 849.9,286.4 850.9,286.4 851.8,286.4 852.8,286.4 853.8,286.4 854.8,286.4 855.8,286.4 856.7,286.4 857.7,286.4 858.7,286.4 859.7,286.4 860.7,286.4 861.6,286.4 862.6,286.4 863.6,286.4 864.6,286.4 865.6,286.4 866.5,286.4 867.5,286.4 868.5,286.4 869.5,286.4 870.5,286.4 871.4,286.4 872.4,286.4 873.4,286.4 874.4,286.4 875.4,286.4 876.3,286.4 877.3,286.4 878.3,286.4 879.3,286.4 880.3,286.4 881.2,286.4 882.2,286.4 883.2,286.4 884.2,286.4 885.2,286.4 886.1,286.4 887.1,286.4 888.1,286.4 889.1,286.4 890.1,286.4 891.0,286.4 892.0,286.4 893.0,286.4 894.0,286.4 895.0,286.4 895.9,286.4 896.9,286.4 897.9,286.4 898.9,286.4 899.9,286.4 900.8,286.4 901.8,286.5 902.8,286.5 903.8,286.4 904.8,286.4 905.7,286.4 906.7,286.4 907.7,286.4 908.7,286.4 909.7,286.4 910.6,286.4 911.6,286.3 912.6,286.3 913.6,286.3 914.6,286.3 915.5,286.3 916.5,286.3 917.5,286.3 918.5,286.3 919.5,286.2 920.4,286.2 921.4,286.2 922.4,286.2 923.4,286.2 924.4,286.2 925.3,286.2 926.3,286.1 927.3,286.1 928.3,286.1 929.3,286.1 930.2,286.0 931.2,286.0 932.2,286.0 933.2,286.0 934.2,286.0 935.1,285.9 936.1,285.9 937.1,285.9 938.1,285.9 939.1,285.9 940.0,285.9 941.0,285.9 942.0,285.9 943.0,285.8 944.0,285.8 944.9,285.8 945.9,285.8 946.9,285.8 947.9,285.8 948.9,285.8 949.8,285.8 950.8,285.8 951.8,285.8 952.8,285.8 953.8,285.8 954.7,285.8 955.7,285.8 956.7,285.8 957.7,285.8 958.7,285.8 959.6,285.8 960.6,285.8 961.6,285.8 962.6,285.8 963.6,285.8 964.5,285.8 965.5,285.8 966.5,285.8 967.5,285.8 968.5,285.8 969.4,285.8 970.4,285.8 971.4,285.8 972.4,285.9 973.4,285.9 974.3,285.9 975.3,285.9 976.3,285.9 977.3,286.0 978.3,286.0 979.2,286.0 980.2,286.0 981.2,286.0 982.2,286.0 983.2,286.1 984.1,286.1 985.1,286.1 986.1,286.1 987.1,286.1 988.1,286.2 989.0,286.2 990.0,286.2 991.0,286.2 992.0,286.2 993.0,286.3 993.9,286.3 994.9,286.3 995.9,286.3 996.9,286.3 997.9,286.3 998.8,286.3 999.8,286.3 1000.8,286.3 1001.8,286.3 1002.8,286.3 1003.7,286.3 1004.7,286.3 1005.7,286.3 1006.7,286.3 1007.7,286.3 1008.6,286.4 1009.6,286.4 1010.6,286.4 1011.6,286.4 1012.6,286.4 1013.5,286.4 1014.5,286.4 1015.5,286.4 1016.5,286.4 1017.5,286.4 1018.4,286.4 1019.4,286.5 1020.4,286.5 1021.4,286.5 1022.4,286.5 1023.3,286.5 1024.3,286.5 1025.3,286.5 1026.3,286.5 1027.3,286.5 1028.2,286.5 1029.2,286.6 1030.2,286.6 1031.2,286.6 1032.2,286.6 1033.1,286.6 1034.1,286.6 1035.1,286.6 1036.1,286.6 1037.1,286.6 1038.0,286.6 1039.0,286.7 1040.0,286.7" fill="none" stroke="#2c6fbb" stroke-width="1.5"/>
<line x1="684.3" y1="280" x2="684.3" y2="340"
      stroke="#c0392b" stroke-width="1.5"/>
<text x="684.3" y="372" font-size="10" fill="#c0392b"
      text-anchor="middle">+1.37s</text>
</svg>