<svg xmlns="http://www.w3.org/2000/svg" width="1100" height="340" font-family="ui-sans-serif,system-ui,sans-serif">
<rect width="1100" height="340" fill="#fff"/>
<text x="8" y="18" font-size="14" font-weight="600">VY_4x1scS-Y__13_121</text>
<text x="8" y="34" font-size="11" fill="#666">candidate offset +2.38s
 · IoU 0.938 at lag 0 -&gt; 0.973 at peak
 (+0.035) · margin 0.026
 · 3 models, spread 2.38s
 · VAD agrees (+2.44s)</text>
<line x1="60.0" y1="30" x2="60.0" y2="200" stroke="#eee"/><text x="60.0" y="215" font-size="10" fill="#999" text-anchor="middle">0s</text><line x1="182.5" y1="30" x2="182.5" y2="200" stroke="#eee"/><text x="182.5" y="215" font-size="10" fill="#999" text-anchor="middle">14s</text><line x1="305.0" y1="30" x2="305.0" y2="200" stroke="#eee"/><text x="305.0" y="215" font-size="10" fill="#999" text-anchor="middle">27s</text><line x1="427.5" y1="30" x2="427.5" y2="200" stroke="#eee"/><text x="427.5" y="215" font-size="10" fill="#999" text-anchor="middle">40s</text><line x1="550.0" y1="30" x2="550.0" y2="200" stroke="#eee"/><text x="550.0" y="215" font-size="10" fill="#999" text-anchor="middle">54s</text><line x1="672.5" y1="30" x2="672.5" y2="200" stroke="#eee"/><text x="672.5" y="215" font-size="10" fill="#999" text-anchor="middle">68s</text><line x1="795.0" y1="30" x2="795.0" y2="200" stroke="#eee"/><text x="795.0" y="215" font-size="10" fill="#999" text-anchor="middle">81s</text><line x1="917.5" y1="30" x2="917.5" y2="200" stroke="#eee"/><text x="917.5" y="215" font-size="10" fill="#999" text-anchor="middle">94s</text><line x1="1040.0" y1="30" x2="1040.0" y2="200" stroke="#eee"/><text x="1040.0" y="215" font-size="10" fill="#999" text-anchor="middle">108s</text>
<text x="4" y="64" font-size="11" fill="#555">GT raw</text><rect x="60.1" y="46" width="168.6" height="20" fill="#c0392b"/><rect x="231.8" y="46" width="52.8" height="20" fill="#c0392b"/><rect x="285.1" y="46" width="19.4" height="20" fill="#c0392b"/><rect x="304.7" y="46" width="119.1" height="20" fill="#c0392b"/><rect x="429.1" y="46" width="36.0" height="20" fill="#c0392b"/><rect x="465.5" y="46" width="31.0" height="20" fill="#c0392b"/><rect x="504.5" y="46" width="271.9" height="20" fill="#c0392b"/><rect x="778.6" y="46" width="24.0" height="20" fill="#c0392b"/><rect x="802.9" y="46" width="66.6" height="20" fill="#c0392b"/><rect x="871.1" y="46" width="45.4" height="20" fill="#c0392b"/><rect x="916.7" y="46" width="4.2" height="20" fill="#c0392b"/><rect x="922.5" y="46" width="117.5" height="20" fill="#c0392b"/>
<text x="4" y="92" font-size="11" fill="#555">GT shifted</text><rect x="60.0" y="74" width="146.0" height="20" fill="#e67e22"/><rect x="209.1" y="74" width="52.8" height="20" fill="#e67e22"/><rect x="262.4" y="74" width="19.4" height="20" fill="#e67e22"/><rect x="282.0" y="74" width="119.1" height="20" fill="#e67e22"/><rect x="406.4" y="74" width="36.0" height="20" fill="#e67e22"/><rect x="442.8" y="74" width="31.0" height="20" fill="#e67e22"/><rect x="481.9" y="74" width="271.9" height="20" fill="#e67e22"/><rect x="755.9" y="74" width="24.0" height="20" fill="#e67e22"/><rect x="780.2" y="74" width="66.6" height="20" fill="#e67e22"/><rect x="848.4" y="74" width="45.4" height="20" fill="#e67e22"/><rect x="894.0" y="74" width="4.2" height="20" fill="#e67e22"/><rect x="899.8" y="74" width="117.5" height="20" fill="#e67e22"/>
<text x="4" y="120" font-size="11" fill="#555">consensus</text><rect x="60.1" y="102" width="36.9" height="20" fill="#2c6fbb"/><rect x="99.3" y="102" width="29.9" height="20" fill="#2c6fbb"/><rect x="131.8" y="102" width="183.6" height="20" fill="#2c6fbb"/><rect x="315.5" y="102" width="86.3" height="20" fill="#2c6fbb"/><rect x="407.8" y="102" width="19.8" height="20" fill="#2c6fbb"/><rect x="431.2" y="102" width="43.4" height="20" fill="#2c6fbb"/><rect x="483.3" y="102" width="221.9" height="20" fill="#2c6fbb"/><rect x="709.8" y="102" width="44.5" height="20" fill="#2c6fbb"/><rect x="757.3" y="102" width="2.8" height="20" fill="#2c6fbb"/><rect x="764.0" y="102" width="14.2" height="20" fill="#2c6fbb"/><rect x="778.4" y="102" width="2.4" height="20" fill="#2c6fbb"/><rect x="781.3" y="102" width="66.1" height="20" fill="#2c6fbb"/><rect x="849.9" y="102" width="49.4" height="20" fill="#2c6fbb"/><rect x="900.9" y="102" width="138.7" height="20" fill="#2c6fbb"/>
<text x="4" y="148" font-size="11" fill="#555">energy VAD</text><rect x="60.2" y="130" width="3.3" height="20" fill="#7f8c8d"/><rect x="64.2" y="130" width="3.4" height="20" fill="#7f8c8d"/><rect x="67.8" y="130" width="1.0" height="20" fill="#7f8c8d"/><rect x="70.2" y="130" width="2.2" height="20" fill="#7f8c8d"/><rect x="73.1" y="130" width="1.8" height="20" fill="#7f8c8d"/><rect x="75.0" y="130" width="1.0" height="20" fill="#7f8c8d"/><rect x="76.0" y="130" width="2.8" height="20" fill="#7f8c8d"/><rect x="79.5" y="130" width="1.3" height="20" fill="#7f8c8d"/><rect x="81.7" y="130" width="1.5" height="20" fill="#7f8c8d"/><rect x="83.9" y="130" width="2.1" height="20" fill="#7f8c8d"/><rect x="86.3" y="130" width="1.9" height="20" fill="#7f8c8d"/><rect x="88.7" y="130" width="1.3" height="20" fill="#7f8c8d"/><rect x="90.9" y="130" width="1.2" height="20" fill="#7f8c8d"/><rect x="92.2" y="130" width="1.1" height="20" fill="#7f8c8d"/><rect x="94.0" y="130" width="1.0" height="20" fill="#7f8c8d"/><rect x="99.9" y="130" width="5.0" height="20" fill="#7f8c8d"/><rect x="105.4" y="130" width="1.9" height="20" fill="#7f8c8d"/><rect x="107.6" y="130" width="5.8" height="20" fill="#7f8c8d"/><rect x="114.2" y="130" width="1.5" height="20" fill="#7f8c8d"/><rect x="116.3" y="130" width="5.2" height="20" fill="#7f8c8d"/><rect x="121.5" y="130" width="1.9" height="20" fill="#7f8c8d"/><rect x="124.2" y="130" width="1.6" height="20" fill="#7f8c8d"/><rect x="126.0" y="130" width="1.0" height="20" fill="#7f8c8d"/><rect x="132.3" y="130" width="3.2" height="20" fill="#7f8c8d"/><rect x="135.6" y="130" width="1.0" height="20" fill="#7f8c8d"/><rect x="135.8" y="130" width="1.5" height="20" fill="#7f8c8d"/><rect x="137.8" y="130" width="1.2" height="20" fill="#7f8c8d"/><rect x="139.6" y="130" width="4.1" height="20" fill="#7f8c8d"/><rect x="144.7" y="130" width="2.8" height="20" fill="#7f8c8d"/><rect x="148.1" y="130" width="1.0" height="20" fill="#7f8c8d"/><rect x="149.8" y="130" width="3.0" height="20" fill="#7f8c8d"/><rect x="153.5" y="130" width="1.6" height="20" fill="#7f8c8d"/><rect x="155.6" y="130" width="1.0" height="20" fill="#7f8c8d"/><rect x="156.8" y="130" width="2.7" height="20" fill="#7f8c8d"/><rect x="159.7" y="130" width="3.6" height="20" fill="#7f8c8d"/><rect x="164.0" y="130" width="1.5" height="20" fill="#7f8c8d"/><rect x="166.1" y="130" width="1.5" height="20" fill="#7f8c8d"/><rect x="167.8" y="130" width="1.5" height="20" fill="#7f8c8d"/><rect x="169.5" y="130" width="1.0" height="20" fill="#7f8c8d"/><rect x="173.6" y="130" width="2.0" height="20" fill="#7f8c8d"/><rect x="176.1" y="130" width="1.0" height="20" fill="#7f8c8d"/><rect x="176.6" y="130" width="2.0" height="20" fill="#7f8c8d"/><rect x="179.1" y="130" width="1.1" height="20" fill="#7f8c8d"/><rect x="181.0" y="130" width="3.6" height="20" fill="#7f8c8d"/><rect x="185.1" y="130" width="1.6" height="20" fill="#7f8c8d"/><rect x="187.1" y="130" width="1.0" height="20" fill="#7f8c8d"/><rect x="187.8" y="130" width="1.0" height="20" fill="#7f8c8d"/><rect x="189.6" y="130" width="2.4" height="20" fill="#7f8c8d"/><rect x="195.6" y="130" width="1.5" height="20" fill="#7f8c8d"/><rect x="197.7" y="130" width="1.2" height="20" fill="#7f8c8d"/><rect x="199.1" y="130" width="2.8" height="20" fill="#7f8c8d"/><rect x="202.0" y="130" width="2.1" height="20" fill="#7f8c8d"/><rect x="204.9" y="130" width="1.0" height="20" fill="#7f8c8d"/><rect x="205.2" y="130" width="1.0" height="20" fill="#7f8c8d"/><rect x="210.9" y="130" width="5.5" height="20" fill="#7f8c8d"/><rect x="216.5" y="130" width="1.0" height="20" fill="#7f8c8d"/><rect x="217.3" y="130" width="3.7" height="20" fill="#7f8c8d"/><rect x="221.9" y="130" width="3.3" height="20" fill="#7f8c8d"/><rect x="226.1" y="130" width="1.0" height="20" fill="#7f8c8d"/><rect x="227.6" y="130" width="1.0" height="20" fill="#7f8c8d"/><rect x="229.0" y="130" width="1.6" height="20" fill="#7f8c8d"/><rect x="230.8" y="130" width="1.7" height="20" fill="#7f8c8d"/><rect x="233.0" y="130" width="1.5" height="20" fill="#7f8c8d"/><rect x="235.0" y="130" width="1.0" height="20" fill="#7f8c8d"/><rect x="236.3" y="130" width="1.0" height="20" fill="#7f8c8d"/><rect x="237.4" y="130" width="1.0" height="20" fill="#7f8c8d"/><rect x="238.0" y="130" width="1.0" height="20" fill="#7f8c8d"/><rect x="238.8" y="130" width="1.5" height="20" fill="#7f8c8d"/><rect x="240.8" y="130" width="1.0" height="20" fill="#7f8c8d"/><rect x="242.8" y="130" width="1.0" height="20" fill="#7f8c8d"/><rect x="243.8" y="130" width="1.0" height="20" fill="#7f8c8d"/><rect x="244.7" y="130" width="1.5" height="20" fill="#7f8c8d"/><rect x="247.3" y="130" width="1.0" height="20" fill="#7f8c8d"/><rect x="248.2" y="130" width="4.1" height="20" fill="#7f8c8d"/><rect x="252.9" y="130" width="1.0" height="20" fill="#7f8c8d"/><rect x="253.7" y="130" width="4.0" height="20" fill="#7f8c8d"/><rect x="258.5" y="130" width="1.0" height="20" fill="#7f8c8d"/><rect x="259.6" y="130" width="1.0" height="20" fill="#7f8c8d"/><rect x="260.0" y="130" width="1.2" height="20" fill="#7f8c8d"/><rect x="264.3" y="130" width="1.0" height="20" fill="#7f8c8d"/><rect x="265.6" y="130" width="2.1" height="20" fill="#7f8c8d"/><rect x="268.2" y="130" width="1.2" height="20" fill="#7f8c8d"/><rect x="269.8" y="130" width="1.0" height="20" fill="#7f8c8d"/><rect x="270.4" y="130" width="3.1" height="20" fill="#7f8c8d"/><rect x="274.0" y="130" width="1.4" height="20" fill="#7f8c8d"/><rect x="276.5" y="130" width="1.5" height="20" fill="#7f8c8d"/><rect x="278.1" y="130" width="3.4" height="20" fill="#7f8c8d"/><rect x="284.9" y="130" width="1.3" height="20" fill="#7f8c8d"/><rect x="291.8" y="130" width="1.0" height="20" fill="#7f8c8d"/><rect x="292.1" y="130" width="1.0" height="20" fill="#7f8c8d"/><rect x="293.0" y="130" width="1.3" height="20" fill="#7f8c8d"/><rect x="294.5" y="130" width="1.7" height="20" fill="#7f8c8d"/><rect x="296.6" y="130" width="1.0" height="20" fill="#7f8c8d"/><rect x="296.7" y="130" width="1.0" height="20" fill="#7f8c8d"/><rect x="297.4" y="130" width="1.0" height="20" fill="#7f8c8d"/><rect x="298.6" y="130" width="1.0" height="20" fill="#7f8c8d"/><rect x="298.8" y="130" width="1.0" height="20" fill="#7f8c8d"/><rect x="299.8" y="130" width="1.0" height="20" fill="#7f8c8d"/><rect x="300.6" y="130" width="2.7" height="20" fill="#7f8c8d"/><rect x="304.1" y="130" width="1.3" height="20" fill="#7f8c8d"/><rect x="305.5" y="130" width="2.1" height="20" fill="#7f8c8d"/><rect x="308.2" y="130" width="1.0" height="20" fill="#7f8c8d"/><rect x="309.2" y="130" width="1.0" height="20" fill="#7f8c8d"/><rect x="310.0" y="130" width="1.1" height="20" fill="#7f8c8d"/><rect x="311.6" y="130" width="1.0" height="20" fill="#7f8c8d"/><rect x="312.7" y="130" width="1.0" height="20" fill="#7f8c8d"/><rect x="313.3" y="130" width="1.0" height="20" fill="#7f8c8d"/><rect x="316.3" y="130" width="1.0" height="20" fill="#7f8c8d"/><rect x="317.9" y="130" width="1.8" height="20" fill="#7f8c8d"/><rect x="319.9" y="130" width="3.7" height="20" fill="#7f8c8d"/><rect x="324.0" y="130" width="2.5" height="20" fill="#7f8c8d"/><rect x="326.6" y="130" width="1.0" height="20" fill="#7f8c8d"/><rect x="327.9" y="130" width="1.0" height="20" fill="#7f8c8d"/><rect x="329.1" y="130" width="1.0" height="20" fill="#7f8c8d"/><rect x="330.1" y="130" width="2.4" height="20" fill="#7f8c8d"/><rect x="333.4" y="130" width="3.2" height="20" fill="#7f8c8d"/><rect x="336.7" y="130" width="2.3" height="20" fill="#7f8c8d"/><rect x="339.3" y="130" width="1.0" height="20" fill="#7f8c8d"/><rect x="339.6" y="130" width="1.0" height="20" fill="#7f8c8d"/><rect x="339.9" y="130" width="1.0" height="20" fill="#7f8c8d"/><rect x="340.6" y="130" width="1.3" height="20" fill="#7f8c8d"/><rect x="342.6" y="130" width="1.0" height="20" fill="#7f8c8d"/><rect x="342.8" y="130" width="3.5" height="20" fill="#7f8c8d"/><rect x="346.6" y="130" width="1.0" height="20" fill="#7f8c8d"/><rect x="348.2" y="130" width="6.3" height="20" fill="#7f8c8d"/><rect x="355.0" y="130" width="1.1" height="20" fill="#7f8c8d"/><rect x="356.2" y="130" width="1.0" height="20" fill="#7f8c8d"/><rect x="356.8" y="130" width="1.0" height="20" fill="#7f8c8d"/><rect x="358.0" y="130" width="1.0" height="20" fill="#7f8c8d"/><rect x="359.8" y="130" width="1.6" height="20" fill="#7f8c8d"/><rect x="362.2" y="130" width="1.7" height="20" fill="#7f8c8d"/><rect x="364.5" y="130" width="1.0" height="20" fill="#7f8c8d"/><rect x="365.6" y="130" width="1.0" height="20" fill="#7f8c8d"/><rect x="366.2" y="130" width="1.0" height="20" fill="#7f8c8d"/><rect x="366.5" y="130" width="1.0" height="20" fill="#7f8c8d"/><rect x="367.2" y="130" width="1.0" height="20" fill="#7f8c8d"/><rect x="368.2" y="130" width="1.0" height="20" fill="#7f8c8d"/><rect x="368.5" y="130" width="1.7" height="20" fill="#7f8c8d"/><rect x="370.6" y="130" width="3.6" height="20" fill="#7f8c8d"/><rect x="374.4" y="130" width="1.2" height="20" fill="#7f8c8d"/><rect x="375.9" y="130" width="1.0" height="20" fill="#7f8c8d"/><rect x="376.5" y="130" width="1.4" height="20" fill="#7f8c8d"/><rect x="378.4" y="130" width="1.0" height="20" fill="#7f8c8d"/><rect x="379.8" y="130" width="1.0" height="20" fill="#7f8c8d"/><rect x="381.0" y="130" width="1.0" height="20" fill="#7f8c8d"/><rect x="381.9" y="130" width="2.4" height="20" fill="#7f8c8d"/><rect x="385.2" y="130" width="1.0" height="20" fill="#7f8c8d"/><rect x="386.7" y="130" width="1.3" height="20" fill="#7f8c8d"/><rect x="388.0" y="130" width="1.0" height="20" fill="#7f8c8d"/><rect x="388.6" y="130" width="1.0" height="20" fill="#7f8c8d"/><rect x="390.8" y="130" width="2.5" height="20" fill="#7f8c8d"/><rect x="393.9" y="130" width="1.0" height="20" fill="#7f8c8d"/><rect x="394.1" y="130" width="1.0" height="20" fill="#7f8c8d"/><rect x="394.7" y="130" width="1.0" height="20" fill="#7f8c8d"/><rect x="395.0" y="130" width="1.0" height="20" fill="#7f8c8d"/><rect x="395.7" y="130" width="1.2" height="20" fill="#7f8c8d"/><rect x="397.8" y="130" width="1.0" height="20" fill="#7f8c8d"/><rect x="398.6" y="130" width="1.0" height="20" fill="#7f8c8d"/><rect x="399.1" y="130" width="1.0" height="20" fill="#7f8c8d"/><rect x="400.0" y="130" width="1.2" height="20" fill="#7f8c8d"/><rect x="404.9" y="130" width="1.0" height="20" fill="#7f8c8d"/><rect x="408.4" y="130" width="1.4" height="20" fill="#7f8c8d"/><rect x="410.1" y="130" width="1.0" height="20" fill="#7f8c8d"/><rect x="411.1" y="130" width="2.7" height="20" fill="#7f8c8d"/><rect x="414.0" y="130" width="1.0" height="20" fill="#7f8c8d"/><rect x="414.3" y="130" width="1.0" height="20" fill="#7f8c8d"/><rect x="414.9" y="130" width="1.0" height="20" fill="#7f8c8d"/><rect x="415.5" y="130" width="1.0" height="20" fill="#7f8c8d"/><rect x="416.8" y="130" width="1.0" height="20" fill="#7f8c8d"/><rect x="417.3" y="130" width="1.5" height="20" fill="#7f8c8d"/><rect x="419.4" y="130" width="1.0" height="20" fill="#7f8c8d"/><rect x="421.0" y="130" width="2.4" height="20" fill="#7f8c8d"/><rect x="423.5" y="130" width="1.0" height="20" fill="#7f8c8d"/><rect x="424.5" y="130" width="1.0" height="20" fill="#7f8c8d"/><rect x="426.0" y="130" width="1.0" height="20" fill="#7f8c8d"/><rect x="432.1" y="130" width="1.5" height="20" fill="#7f8c8d"/><rect x="434.6" y="130" width="1.0" height="20" fill="#7f8c8d"/><rect x="435.5" y="130" width="1.0" height="20" fill="#7f8c8d"/><rect x="436.3" y="130" width="1.0" height="20" fill="#7f8c8d"/><rect x="437.6" y="130" width="1.0" height="20" fill="#7f8c8d"/><rect x="438.0" y="130" width="1.0" height="20" fill="#7f8c8d"/><rect x="438.8" y="130" width="1.0" height="20" fill="#7f8c8d"/><rect x="439.7" y="130" width="1.0" height="20" fill="#7f8c8d"/><rect x="440.1" y="130" width="1.0" height="20" fill="#7f8c8d"/><rect x="440.8" y="130" width="1.1" height="20" fill="#7f8c8d"/><rect x="444.8" y="130" width="1.7" height="20" fill="#7f8c8d"/><rect x="446.6" y="130" width="7.4" height="20" fill="#7f8c8d"/><rect x="455.3" y="130" width="1.0" height="20" fill="#7f8c8d"/><rect x="455.4" y="130" width="1.0" height="20" fill="#7f8c8d"/><rect x="456.9" y="130" width="1.0" height="20" fill="#7f8c8d"/><rect x="457.5" y="130" width="1.0" height="20" fill="#7f8c8d"/><rect x="458.4" y="130" width="1.0" height="20" fill="#7f8c8d"/><rect x="458.5" y="130" width="3.3" height="20" fill="#7f8c8d"/><rect x="462.3" y="130" width="1.0" height="20" fill="#7f8c8d"/><rect x="463.3" y="130" width="1.0" height="20" fill="#7f8c8d"/><rect x="463.8" y="130" width="3.5" height="20" fill="#7f8c8d"/><rect x="467.8" y="130" width="6.1" height="20" fill="#7f8c8d"/><rect x="483.8" y="130" width="2.9" height="20" fill="#7f8c8d"/><rect x="487.0" y="130" width="1.0" height="20" fill="#7f8c8d"/><rect x="487.4" y="130" width="1.0" height="20" fill="#7f8c8d"/><rect x="488.1" y="130" width="1.0" height="20" fill="#7f8c8d"/><rect x="489.7" y="130" width="1.0" height="20" fill="#7f8c8d"/><rect x="491.5" y="130" width="1.0" height="20" fill="#7f8c8d"/><rect x="492.3" y="130" width="1.0" height="20" fill="#7f8c8d"/><rect x="493.7" y="130" width="1.0" height="20" fill="#7f8c8d"/><rect x="494.9" y="130" width="1.0" height="20" fill="#7f8c8d"/><rect x="496.4" y="130" width="1.5" height="20" fill="#7f8c8d"/><rect x="498.6" y="130" width="1.0" height="20" fill="#7f8c8d"/><rect x="499.3" y="130" width="1.0" height="20" fill="#7f8c8d"/><rect x="500.9" y="130" width="1.0" height="20" fill="#7f8c8d"/><rect x="503.9" y="130" width="1.0" height="20" fill="#7f8c8d"/><rect x="504.7" y="130" width="1.0" height="20" fill="#7f8c8d"/><rect x="505.3" y="130" width="2.4" height="20" fill="#7f8c8d"/><rect x="508.4" y="130" width="1.0" height="20" fill="#7f8c8d"/><rect x="509.3" y="130" width="1.0" height="20" fill="#7f8c8d"/><rect x="510.0" y="130" width="1.0" height="20" fill="#7f8c8d"/><rect x="510.8" y="130" width="2.6" height="20" fill="#7f8c8d"/><rect x="514.1" y="130" width="1.1" height="20" fill="#7f8c8d"/><rect x="515.9" y="130" width="1.0" height="20" fill="#7f8c8d"/><rect x="517.0" y="130" width="1.0" height="20" fill="#7f8c8d"/><rect x="518.8" y="130" width="1.0" height="20" fill="#7f8c8d"/><rect x="519.5" y="130" width="1.0" height="20" fill="#7f8c8d"/><rect x="520.3" y="130" width="2.3" height="20" fill="#7f8c8d"/><rect x="523.7" y="130" width="1.0" height="20" fill="#7f8c8d"/><rect x="524.4" y="130" width="1.0" height="20" fill="#7f8c8d"/><rect x="525.3" y="130" width="1.0" height="20" fill="#7f8c8d"/><rect x="525.9" y="130" width="1.0" height="20" fill="#7f8c8d"/><rect x="527.0" y="130" width="1.0" height="20" fill="#7f8c8d"/><rect x="528.0" y="130" width="1.0" height="20" fill="#7f8c8d"/><rect x="529.3" y="130" width="1.5" height="20" fill="#7f8c8d"/><rect x="531.2" y="130" width="1.0" height="20" fill="#7f8c8d"/><rect x="532.2" y="130" width="1.0" height="20" fill="#7f8c8d"/><rect x="533.1" y="130" width="2.2" height="20" fill="#7f8c8d"/><rect x="535.7" y="130" width="7.3" height="20" fill="#7f8c8d"/><rect x="543.0" y="130" width="4.2" height="20" fill="#7f8c8d"/><rect x="547.9" y="130" width="1.7" height="20" fill="#7f8c8d"/><rect x="549.7" y="130" width="1.0" height="20" fill="#7f8c8d"/><rect x="550.2" y="130" width="1.0" height="20" fill="#7f8c8d"/><rect x="551.3" y="130" width="2.5" height="20" fill="#7f8c8d"/><rect x="554.4" y="130" width="1.0" height="20" fill="#7f8c8d"/><rect x="554.7" y="130" width="1.0" height="20" fill="#7f8c8d"/><rect x="555.9" y="130" width="2.4" height="20" fill="#7f8c8d"/><rect x="558.4" y="130" width="1.0" height="20" fill="#7f8c8d"/><rect x="558.6" y="130" width="2.8" height="20" fill="#7f8c8d"/><rect x="561.5" y="130" width="5.3" height="20" fill="#7f8c8d"/><rect x="567.0" y="130" width="1.7" height="20" fill="#7f8c8d"/><rect x="569.1" y="130" width="1.0" height="20" fill="#7f8c8d"/><rect x="569.8" y="130" width="1.0" height="20" fill="#7f8c8d"/><rect x="570.2" y="130" width="2.5" height="20" fill="#7f8c8d"/><rect x="573.5" y="130" width="1.0" height="20" fill="#7f8c8d"/><rect x="574.0" y="130" width="1.0" height="20" fill="#7f8c8d"/><rect x="575.4" y="130" width="1.0" height="20" fill="#7f8c8d"/><rect x="575.8" y="130" width="1.0" height="20" fill="#7f8c8d"/><rect x="577.1" y="130" width="1.0" height="20" fill="#7f8c8d"/><rect x="579.3" y="130" width="1.0" height="20" fill="#7f8c8d"/><rect x="581.3" y="130" width="6.4" height="20" fill="#7f8c8d"/><rect x="588.3" y="130" width="1.0" height="20" fill="#7f8c8d"/><rect x="588.8" y="130" width="1.0" height="20" fill="#7f8c8d"/><rect x="589.4" y="130" width="1.0" height="20" fill="#7f8c8d"/><rect x="589.6" y="130" width="1.0" height="20" fill="#7f8c8d"/><rect x="590.5" y="130" width="1.0" height="20" fill="#7f8c8d"/><rect x="590.9" y="130" width="1.5" height="20" fill="#7f8c8d"/><rect x="593.3" y="130" width="1.0" height="20" fill="#7f8c8d"/><rect x="594.8" y="130" width="1.0" height="20" fill="#7f8c8d"/><rect x="596.8" y="130" width="1.0" height="20" fill="#7f8c8d"/><rect x="597.9" y="130" width="1.0" height="20" fill="#7f8c8d"/><rect x="598.5" y="130" width="1.0" height="20" fill="#7f8c8d"/><rect x="598.7" y="130" width="1.0" height="20" fill="#7f8c8d"/><rect x="599.5" y="130" width="3.6" height="20" fill="#7f8c8d"/><rect x="603.3" y="130" width="1.0" height="20" fill="#7f8c8d"/><rect x="605.0" y="130" width="1.0" height="20" fill="#7f8c8d"/><rect x="605.4" y="130" width="1.0" height="20" fill="#7f8c8d"/><rect x="606.4" y="130" width="1.0" height="20" fill="#7f8c8d"/><rect x="608.2" y="130" width="2.2" height="20" fill="#7f8c8d"/><rect x="611.0" y="130" width="1.0" height="20" fill="#7f8c8d"/><rect x="612.6" y="130" width="1.0" height="20" fill="#7f8c8d"/><rect x="614.1" y="130" width="1.0" height="20" fill="#7f8c8d"/><rect x="615.2" y="130" width="2.1" height="20" fill="#7f8c8d"/><rect x="617.3" y="130" width="1.0" height="20" fill="#7f8c8d"/><rect x="617.7" y="130" width="1.1" height="20" fill="#7f8c8d"/><rect x="619.7" y="130" width="7.2" height="20" fill="#7f8c8d"/><rect x="628.7" y="130" width="1.0" height="20" fill="#7f8c8d"/><rect x="628.9" y="130" width="1.0" height="20" fill="#7f8c8d"/><rect x="629.9" y="130" width="1.0" height="20" fill="#7f8c8d"/><rect x="630.0" y="130" width="1.0" height="20" fill="#7f8c8d"/><rect x="631.6" y="130" width="1.0" height="20" fill="#7f8c8d"/><rect x="632.3" y="130" width="2.8" height="20" fill="#7f8c8d"/><rect x="635.2" y="130" width="1.0" height="20" fill="#7f8c8d"/><rect x="636.0" y="130" width="1.0" height="20" fill="#7f8c8d"/><rect x="637.1" y="130" width="2.6" height="20" fill="#7f8c8d"/><rect x="640.0" y="130" width="1.0" height="20" fill="#7f8c8d"/><rect x="640.8" y="130" width="1.0" height="20" fill="#7f8c8d"/><rect x="641.7" y="130" width="1.0" height="20" fill="#7f8c8d"/><rect x="642.3" y="130" width="1.0" height="20" fill="#7f8c8d"/><rect x="643.2" y="130" width="1.5" height="20" fill="#7f8c8d"/><rect x="645.0" y="130" width="2.1" height="20" fill="#7f8c8d"/><rect x="647.2" y="130" width="1.0" height="20" fill="#7f8c8d"/><rect x="647.5" y="130" width="1.7" height="20" fill="#7f8c8d"/><rect x="649.3" y="130" width="1.2" height="20" fill="#7f8c8d"/><rect x="650.6" y="130" width="1.4" height="20" fill="#7f8c8d"/><rect x="652.4" y="130" width="1.0" height="20" fill="#7f8c8d"/><rect x="653.5" y="130" width="2.7" height="20" fill="#7f8c8d"/><rect x="656.6" y="130" width="4.8" height="20" fill="#7f8c8d"/><rect x="662.2" y="130" width="1.0" height="20" fill="#7f8c8d"/><rect x="663.1" y="130" width="2.4" height="20" fill="#7f8c8d"/><rect x="665.5" y="130" width="1.5" height="20" fill="#7f8c8d"/><rect x="667.5" y="130" width="2.7" height="20" fill="#7f8c8d"/><rect x="670.3" y="130" width="3.1" height="20" fill="#7f8c8d"/><rect x="673.5" y="130" width="1.0" height="20" fill="#7f8c8d"/><rect x="675.0" y="130" width="1.0" height="20" fill="#7f8c8d"/><rect x="675.5" y="130" width="8.8" height="20" fill="#7f8c8d"/><rect x="684.4" y="130" width="1.0" height="20" fill="#7f8c8d"/><rect x="685.5" y="130" width="1.0" height="20" fill="#7f8c8d"/><rect x="686.4" y="130" width="1.0" height="20" fill="#7f8c8d"/><rect x="687.7" y="130" width="4.5" height="20" fill="#7f8c8d"/><rect x="695.0" y="130" width="1.0" height="20" fill="#7f8c8d"/><rect x="696.1" y="130" width="3.4" height="20" fill="#7f8c8d"/><rect x="699.7" y="130" width="1.7" height="20" fill="#7f8c8d"/><rect x="703.4" y="130" width="1.0" height="20" fill="#7f8c8d"/><rect x="703.7" y="130" width="1.0" height="20" fill="#7f8c8d"/><rect x="710.3" y="130" width="1.0" height="20" fill="#7f8c8d"/><rect x="711.8" y="130" width="1.0" height="20" fill="#7f8c8d"/><rect x="713.0" y="130" width="1.0" height="20" fill="#7f8c8d"/><rect x="714.0" y="130" width="1.0" height="20" fill="#7f8c8d"/><rect x="715.0" y="130" width="1.3" height="20" fill="#7f8c8d"/><rect x="717.3" y="130" width="1.3" height="20" fill="#7f8c8d"/><rect x="718.7" y="130" width="1.0" height="20" fill="#7f8c8d"/><rect x="719.3" y="130" width="2.1" height="20" fill="#7f8c8d"/><rect x="722.0" y="130" width="1.0" height="20" fill="#7f8c8d"/><rect x="722.8" y="130" width="1.0" height="20" fill="#7f8c8d"/><rect x="723.7" y="130" width="1.2" height="20" fill="#7f8c8d"/><rect x="724.9" y="130" width="1.0" height="20" fill="#7f8c8d"/><rect x="726.4" y="130" width="1.0" height="20" fill="#7f8c8d"/><rect x="727.8" y="130" width="1.0" height="20" fill="#7f8c8d"/><rect x="728.9" y="130" width="1.3" height="20" fill="#7f8c8d"/><rect x="731.3" y="130" width="1.0" height="20" fill="#7f8c8d"/><rect x="733.0" y="130" width="6.8" height="20" fill="#7f8c8d"/><rect x="740.0" y="130" width="3.2" height="20" fill="#7f8c8d"/><rect x="744.7" y="130" width="1.0" height="20" fill="#7f8c8d"/><rect x="745.4" y="130" width="1.0" height="20" fill="#7f8c8d"/><rect x="746.8" y="130" width="1.0" height="20" fill="#7f8c8d"/><rect x="747.7" y="130" width="1.0" height="20" fill="#7f8c8d"/><rect x="748.8" y="130" width="1.1" height="20" fill="#7f8c8d"/><rect x="751.5" y="130" width="1.9" height="20" fill="#7f8c8d"/><rect x="757.6" y="130" width="1.0" height="20" fill="#7f8c8d"/><rect x="764.5" y="130" width="1.0" height="20" fill="#7f8c8d"/><rect x="764.8" y="130" width="1.0" height="20" fill="#7f8c8d"/><rect x="766.1" y="130" width="2.7" height="20" fill="#7f8c8d"/><rect x="769.0" y="130" width="1.0" height="20" fill="#7f8c8d"/><rect x="770.0" y="130" width="1.1" height="20" fill="#7f8c8d"/><rect x="771.2" y="130" width="1.5" height="20" fill="#7f8c8d"/><rect x="773.1" y="130" width="1.0" height="20" fill="#7f8c8d"/><rect x="775.8" y="130" width="1.0" height="20" fill="#7f8c8d"/><rect x="776.8" y="130" width="1.0" height="20" fill="#7f8c8d"/><rect x="778.7" y="130" width="1.0" height="20" fill="#7f8c8d"/><rect x="782.3" y="130" width="1.0" height="20" fill="#7f8c8d"/><rect x="782.5" y="130" width="1.3" height="20" fill="#7f8c8d"/><rect x="783.8" y="130" width="1.0" height="20" fill="#7f8c8d"/><rect x="784.7" y="130" width="1.0" height="20" fill="#7f8c8d"/><rect x="785.5" y="130" width="1.0" height="20" fill="#7f8c8d"/><rect x="785.7" y="130" width="1.0" height="20" fill="#7f8c8d"/><rect x="787.1" y="130" width="1.0" height="20" fill="#7f8c8d"/><rect x="788.4" y="130" width="1.1" height="20" fill="#7f8c8d"/><rect x="789.9" y="130" width="2.0" height="20" fill="#7f8c8d"/><rect x="792.1" y="130" width="1.0" height="20" fill="#7f8c8d"/><rect x="793.1" y="130" width="1.5" height="20" fill="#7f8c8d"/><rect x="794.8" y="130" width="1.0" height="20" fill="#7f8c8d"/><rect x="795.8" y="130" width="1.0" height="20" fill="#7f8c8d"/><rect x="797.3" y="130" width="1.0" height="20" fill="#7f8c8d"/><rect x="797.6" y="130" width="1.3" height="20" fill="#7f8c8d"/><rect x="799.2" y="130" width="1.0" height="20" fill="#7f8c8d"/><rect x="799.8" y="130" width="1.0" height="20" fill="#7f8c8d"/><rect x="801.2" y="130" width="1.0" height="20" fill="#7f8c8d"/><rect x="802.3" y="130" width="1.0" height="20" fill="#7f8c8d"/><rect x="803.9" y="130" width="1.0" height="20" fill="#7f8c8d"/><rect x="805.0" y="130" width="1.0" height="20" fill="#7f8c8d"/><rect x="806.5" y="130" width="1.1" height="20" fill="#7f8c8d"/><rect x="808.5" y="130" width="1.0" height="20" fill="#7f8c8d"/><rect x="809.2" y="130" width="1.1" height="20" fill="#7f8c8d"/><rect x="811.1" y="130" width="1.0" height="20" fill="#7f8c8d"/><rect x="811.5" y="130" width="1.0" height="20" fill="#7f8c8d"/><rect x="812.0" y="130" width="1.0" height="20" fill="#7f8c8d"/><rect x="812.3" y="130" width="1.0" height="20" fill="#7f8c8d"/><rect x="813.2" y="130" width="1.0" height="20" fill="#7f8c8d"/><rect x="814.5" y="130" width="1.0" height="20" fill="#7f8c8d"/><rect x="815.1" y="130" width="1.0" height="20" fill="#7f8c8d"/><rect x="815.5" y="130" width="1.0" height="20" fill="#7f8c8d"/><rect x="817.4" y="130" width="1.0" height="20" fill="#7f8c8d"/><rect x="817.6" y="130" width="1.0" height="20" fill="#7f8c8d"/><rect x="817.8" y="130" width="1.0" height="20" fill="#7f8c8d"/><rect x="818.0" y="130" width="1.0" height="20" fill="#7f8c8d"/><rect x="818.5" y="130" width="1.0" height="20" fill="#7f8c8d"/><rect x="819.9" y="130" width="3.7" height="20" fill="#7f8c8d"/><rect x="823.9" y="130" width="5.2" height="20" fill="#7f8c8d"/><rect x="829.2" y="130" width="2.5" height="20" fill="#7f8c8d"/><rect x="832.3" y="130" width="1.0" height="20" fill="#7f8c8d"/><rect x="832.9" y="130" width="1.0" height="20" fill="#7f8c8d"/><rect x="833.1" y="130" width="1.0" height="20" fill="#7f8c8d"/><rect x="833.5" y="130" width="3.1" height="20" fill="#7f8c8d"/><rect x="836.7" y="130" width="5.7" height="20" fill="#7f8c8d"/><rect x="842.7" y="130" width="1.2" height="20" fill="#7f8c8d"/><rect x="844.8" y="130" width="2.1" height="20" fill="#7f8c8d"/><rect x="850.4" y="130" width="1.0" height="20" fill="#7f8c8d"/><rect x="853.3" y="130" width="1.0" height="20" fill="#7f8c8d"/><rect x="853.8" y="130" width="1.0" height="20" fill="#7f8c8d"/><rect x="854.7" y="130" width="1.0" height="20" fill="#7f8c8d"/><rect x="855.4" y="130" width="1.5" height="20" fill="#7f8c8d"/><rect x="857.1" y="130" width="1.0" height="20" fill="#7f8c8d"/><rect x="857.9" y="130" width="2.5" height="20" fill="#7f8c8d"/><rect x="861.0" y="130" width="1.0" height="20" fill="#7f8c8d"/><rect x="861.7" y="130" width="1.0" height="20" fill="#7f8c8d"/><rect x="862.1" y="130" width="5.5" height="20" fill="#7f8c8d"/><rect x="869.0" y="130" width="1.3" height="20" fill="#7f8c8d"/><rect x="870.8" y="130" width="1.1" height="20" fill="#7f8c8d"/><rect x="872.1" y="130" width="1.0" height="20" fill="#7f8c8d"/><rect x="873.0" y="130" width="1.0" height="20" fill="#7f8c8d"/><rect x="874.1" y="130" width="1.0" height="20" fill="#7f8c8d"/><rect x="874.9" y="130" width="1.0" height="20" fill="#7f8c8d"/><rect x="877.7" y="130" width="3.1" height="20" fill="#7f8c8d"/><rect x="880.8" y="130" width="1.0" height="20" fill="#7f8c8d"/><rect x="881.6" y="130" width="1.0" height="20" fill="#7f8c8d"/><rect x="882.3" y="130" width="1.0" height="20" fill="#7f8c8d"/><rect x="882.5" y="130" width="2.3" height="20" fill="#7f8c8d"/><rect x="885.8" y="130" width="1.0" height="20" fill="#7f8c8d"/><rect x="886.5" y="130" width="1.0" height="20" fill="#7f8c8d"/><rect x="886.6" y="130" width="1.0" height="20" fill="#7f8c8d"/><rect x="887.3" y="130" width="1.0" height="20" fill="#7f8c8d"/><rect x="888.0" y="130" width="1.0" height="20" fill="#7f8c8d"/><rect x="889.8" y="130" width="1.0" height="20" fill="#7f8c8d"/><rect x="891.1" y="130" width="1.0" height="20" fill="#7f8c8d"/><rect x="891.5" y="130" width="1.0" height="20" fill="#7f8c8d"/><rect x="892.9" y="130" width="1.0" height="20" fill="#7f8c8d"/><rect x="894.2" y="130" width="1.0" height="20" fill="#7f8c8d"/><rect x="894.7" y="130" width="1.0" height="20" fill="#7f8c8d"/><rect x="894.9" y="130" width="1.0" height="20" fill="#7f8c8d"/><rect x="901.6" y="130" width="3.5" height="20" fill="#7f8c8d"/><rect x="905.3" y="130" width="1.0" height="20" fill="#7f8c8d"/><rect x="905.5" y="130" width="1.0" height="20" fill="#7f8c8d"/><rect x="907.0" y="130" width="1.0" height="20" fill="#7f8c8d"/><rect x="907.6" y="130" width="1.0" height="20" fill="#7f8c8d"/><rect x="908.0" y="130" width="9.8" height="20" fill="#7f8c8d"/><rect x="918.1" y="130" width="1.0" height="20" fill="#7f8c8d"/><rect x="918.3" y="130" width="1.0" height="20" fill="#7f8c8d"/><rect x="919.2" y="130" width="2.8" height="20" fill="#7f8c8d"/><rect x="922.1" y="130" width="5.1" height="20" fill="#7f8c8d"/><rect x="928.0" y="130" width="1.0" height="20" fill="#7f8c8d"/><rect x="928.8" y="130" width="1.0" height="20" fill="#7f8c8d"/><rect x="930.5" y="130" width="1.3" height="20" fill="#7f8c8d"/><rect x="932.6" y="130" width="1.0" height="20" fill="#7f8c8d"/><rect x="933.6" y="130" width="3.5" height="20" fill="#7f8c8d"/><rect x="940.5" y="130" width="1.0" height="20" fill="#7f8c8d"/><rect x="943.1" y="130" width="2.2" height="20" fill="#7f8c8d"/><rect x="945.7" y="130" width="3.6" height="20" fill="#7f8c8d"/><rect x="949.7" y="130" width="1.6" height="20" fill="#7f8c8d"/><rect x="951.9" y="130" width="1.0" height="20" fill="#7f8c8d"/><rect x="952.8" y="130" width="1.0" height="20" fill="#7f8c8d"/><rect x="953.0" y="130" width="1.0" height="20" fill="#7f8c8d"/><rect x="955.1" y="130" width="1.0" height="20" fill="#7f8c8d"/><rect x="955.8" y="130" width="1.0" height="20" fill="#7f8c8d"/><rect x="957.0" y="130" width="1.0" height="20" fill="#7f8c8d"/><rect x="958.2" y="130" width="2.1" height="20" fill="#7f8c8d"/><rect x="960.9" y="130" width="1.0" height="20" fill="#7f8c8d"/><rect x="962.1" y="130" width="1.1" height="20" fill="#7f8c8d"/><rect x="963.8" y="130" width="2.3" height="20" fill="#7f8c8d"/><rect x="968.4" y="130" width="1.1" height="20" fill="#7f8c8d"/><rect x="969.9" y="130" width="1.0" height="20" fill="#7f8c8d"/><rect x="971.7" y="130" width="1.0" height="20" fill="#7f8c8d"/><rect x="973.1" y="130" width="1.0" height="20" fill="#7f8c8d"/><rect x="974.3" y="130" width="1.0" height="20" fill="#7f8c8d"/><rect x="974.5" y="130" width="1.0" height="20" fill="#7f8c8d"/><rect x="975.7" y="130" width="3.8" height="20" fill="#7f8c8d"/><rect x="979.6" y="130" width="1.2" height="20" fill="#7f8c8d"/><rect x="981.0" y="130" width="1.2" height="20" fill="#7f8c8d"/><rect x="984.6" y="130" width="1.0" height="20" fill="#7f8c8d"/><rect x="984.8" y="130" width="1.3" height="20" fill="#7f8c8d"/><rect x="986.6" y="130" width="3.8" height="20" fill="#7f8c8d"/><rect x="991.0" y="130" width="1.0" height="20" fill="#7f8c8d"/><rect x="991.7" y="130" width="1.0" height="20" fill="#7f8c8d"/><rect x="993.0" y="130" width="1.0" height="20" fill="#7f8c8d"/><rect x="993.5" y="130" width="1.4" height="20" fill="#7f8c8d"/><rect x="996.1" y="130" width="1.2" height="20" fill="#7f8c8d"/><rect x="997.4" y="130" width="2.4" height="20" fill="#7f8c8d"/><rect x="1002.8" y="130" width="1.0" height="20" fill="#7f8c8d"/><rect x="1003.0" y="130" width="1.0" height="20" fill="#7f8c8d"/><rect x="1003.7" y="130" width="1.0" height="20" fill="#7f8c8d"/><rect x="1004.7" y="130" width="1.0" height="20" fill="#7f8c8d"/><rect x="1006.0" y="130" width="2.6" height="20" fill="#7f8c8d"/><rect x="1009.0" y="130" width="1.9" height="20" fill="#7f8c8d"/><rect x="1011.1" y="130" width="1.0" height="20" fill="#7f8c8d"/><rect x="1011.9" y="130" width="1.0" height="20" fill="#7f8c8d"/><rect x="1012.8" y="130" width="4.1" height="20" fill="#7f8c8d"/><rect x="1017.0" y="130" width="1.0" height="20" fill="#7f8c8d"/><rect x="1018.3" y="130" width="2.9" height="20" fill="#7f8c8d"/><rect x="1023.5" y="130" width="3.1" height="20" fill="#7f8c8d"/><rect x="1026.7" y="130" width="1.0" height="20" fill="#7f8c8d"/><rect x="1027.5" y="130" width="1.0" height="20" fill="#7f8c8d"/><rect x="1028.4" y="130" width="3.1" height="20" fill="#7f8c8d"/><rect x="1032.4" y="130" width="1.2" height="20" fill="#7f8c8d"/><rect x="1033.6" y="130" width="1.0" height="20" fill="#7f8c8d"/><rect x="1034.4" y="130" width="2.1" height="20" fill="#7f8c8d"/><rect x="1036.7" y="130" width="1.0" height="20" fill="#7f8c8d"/><rect x="1037.4" y="130" width="1.0" height="20" fill="#7f8c8d"/><rect x="1038.0" y="130" width="1.0" height="20" fill="#7f8c8d"/>
<text x="8" y="248" font-size="11" fill="#555">IoU vs lag</text>
<line x1="60" y1="300" x2="1040" y2="300" stroke="#ddd"/>
<line x1="550.0" y1="240" x2="550.0" y2="300" stroke="#bbb" stroke-dasharray="3,3"/>
<text x="550.0" y="315" font-size="10" fill="#999" text-anchor="middle">0</text>
<polyline points="60.0,242.4 61.0,242.4 62.0,242.4 62.9,242.4 63.9,242.4 64.9,242.4 65.9,242.4 66.9,242.4 67.8,242.4 68.8,242.4 69.8,242.4 70.8,242.4 71.8,242.4 72.7,242.4 73.7,242.4 74.7,242.4 75.7,242.4 76.7,242.4 77.6,242.4 78.6,242.4 79.6,242.4 80.6,242.4 81.6,242.4 82.5,242.4 83.5,242.4 84.5,242.4 85.5,242.4 86.5,242.4 87.4,242.4 88.4,242.4 89.4,242.4 90.4,242.4 91.4,242.4 92.3,242.4 93.3,242.4 94.3,242.4 95.3,242.4 96.3,242.4 97.2,242.4 98.2,242.4 99.2,242.4 100.2,242.4 101.2,242.4 102.1,242.4 103.1,242.4 104.1,242.4 105.1,242.4 106.1,242.4 107.0,242.4 108.0,242.4 109.0,242.4 110.0,242.4 111.0,242.4 111.9,242.4 112.9,242.4 113.9,242.4 114.9,242.4 115.9,242.4 116.8,242.4 117.8,242.4 118.8,242.4 119.8,242.4 120.8,242.4 121.7,242.4 122.7,242.4 123.7,242.4 124.7,242.4 125.7,242.4 126.6,242.4 127.6,242.4 128.6,242.4 129.6,242.4 130.6,242.4 131.5,242.4 132.5,242.4 133.5,242.4 134.5,242.4 135.5,242.4 136.4,242.4 137.4,242.4 138.4,242.4 139.4,242.4 140.4,242.4 141.3,242.4 142.3,242.5 143.3,242.5 144.3,242.5 145.3,242.5 146.2,242.5 147.2,242.5 148.2,242.5 149.2,242.5 150.2,242.5 151.1,242.5 152.1,242.5 153.1,242.5 154.1,242.5 155.1,242.5 156.0,242.5 157.0,242.5 158.0,242.5 159.0,242.5 160.0,242.5 160.9,242.5 161.9,242.5 162.9,242.5 163.9,242.5 164.9,242.5 165.8,242.5 166.8,242.5 167.8,242.5 168.8,242.5 169.8,242.5 170.7,242.5 171.7,242.5 172.7,242.5 173.7,242.5 174.7,242.5 175.6,242.5 176.6,242.5 177.6,242.5 178.6,242.5 179.6,242.5 180.5,242.5 181.5,242.5 182.5,242.5 183.5,242.5 184.5,242.5 185.4,242.5 186.4,242.5 187.4,242.5 188.4,242.5 189.4,242.5 190.3,242.5 191.3,242.5 192.3,242.5 193.3,242.5 194.3,242.5 195.2,242.5 196.2,242.5 197.2,242.5 198.2,242.5 199.2,242.5 200.1,242.5 201.1,242.5 202.1,242.5 203.1,242.5 204.1,242.5 205.0,242.5 206.0,242.5 207.0,242.5 208.0,242.5 209.0,242.5 209.9,242.5 210.9,242.5 211.9,242.5 212.9,242.5 213.9,242.4 214.8,242.4 215.8,242.4 216.8,242.4 217.8,242.4 218.8,242.4 219.7,242.4 220.7,242.3 221.7,242.3 222.7,242.3 223.7,242.3 224.6,242.3 225.6,242.3 226.6,242.3 227.6,242.3 228.6,242.3 229.5,242.3 230.5,242.3 231.5,242.3 232.5,242.3 233.5,242.3 234.4,242.3 235.4,242.3 236.4,242.4 237.4,242.4 238.4,242.4 239.3,242.4 240.3,242.4 241.3,242.4 242.3,242.4 243.3,242.4 244.2,242.4 245.2,242.5 246.2,242.5 247.2,242.5 248.2,242.5 249.1,242.5 250.1,242.5 251.1,242.5 252.1,242.5 253.1,242.5 254.0,242.5 255.0,242.5 256.0,242.5 257.0,242.5 258.0,242.5 258.9,242.5 259.9,242.5 260.9,242.5 261.9,242.5 262.9,242.5 263.8,242.5 264.8,242.5 265.8,242.5 266.8,242.5 267.8,242.5 268.7,242.5 269.7,242.5 270.7,242.5 271.7,242.5 272.7,242.5 273.6,242.5 274.6,242.5 275.6,242.5 276.6,242.5 277.6,242.5 278.5,242.5 279.5,242.5 280.5,242.5 281.5,242.5 282.5,242.5 283.4,242.5 284.4,242.5 285.4,242.5 286.4,242.5 287.4,242.5 288.3,242.5 289.3,242.5 290.3,242.5 291.3,242.5 292.3,242.5 293.2,242.5 294.2,242.5 295.2,242.5 296.2,242.5 297.2,242.4 298.1,242.4 299.1,242.4 300.1,242.4 301.1,242.4 302.1,242.4 303.0,242.4 304.0,242.4 305.0,242.4 306.0,242.4 307.0,242.4 307.9,242.4 308.9,242.4 309.9,242.4 310.9,242.4 311.9,242.4 312.8,242.4 313.8,242.4 314.8,242.4 315.8,242.4 316.8,242.4 317.7,242.4 318.7,242.4 319.7,242.4 320.7,242.4 321.7,242.4 322.6,242.4 323.6,242.4 324.6,242.4 325.6,242.4 326.6,242.4 327.5,242.4 328.5,242.4 329.5,242.4 330.5,242.4 331.5,242.4 332.4,242.4 333.4,242.4 334.4,242.4 335.4,242.4 336.4,242.4 337.3,242.4 338.3,242.4 339.3,242.4 340.3,242.4 341.3,242.4 342.2,242.4 343.2,242.4 344.2,242.4 345.2,242.4 346.2,242.4 347.1,242.4 348.1,242.4 349.1,242.4 350.1,242.4 351.1,242.4 352.0,242.4 353.0,242.4 354.0,242.4 355.0,242.4 356.0,242.4 356.9,242.4 357.9,242.4 358.9,242.4 359.9,242.4 360.9,242.4 361.8,242.4 362.8,242.4 363.8,242.4 364.8,242.4 365.8,242.4 366.7,242.4 367.7,242.4 368.7,242.4 369.7,242.4 370.7,242.4 371.6,242.4 372.6,242.4 373.6,242.4 374.6,242.4 375.6,242.4 376.5,242.4 377.5,242.4 378.5,242.4 379.5,242.4 380.5,242.4 381.4,242.4 382.4,242.4 383.4,242.4 384.4,242.4 385.4,242.4 386.3,242.4 387.3,242.4 388.3,242.4 389.3,242.4 390.3,242.4 391.2,242.4 392.2,242.4 393.2,242.4 394.2,242.4 395.2,242.4 396.1,242.4 397.1,242.4 398.1,242.4 399.1,242.4 400.1,242.4 401.0,242.4 402.0,242.4 403.0,242.4 404.0,242.4 405.0,242.4 405.9,242.4 406.9,242.4 407.9,242.4 408.9,242.4 409.9,242.4 410.8,242.4 411.8,242.4 412.8,242.4 413.8,242.4 414.8,242.4 415.7,242.4 416.7,242.4 417.7,242.4 418.7,242.4 419.7,242.4 420.6,242.4 421.6,242.4 422.6,242.4 423.6,242.4 424.6,242.4 425.5,242.4 426.5,242.4 427.5,242.4 428.5,242.4 429.5,242.4 430.4,242.4 431.4,242.4 432.4,242.3 433.4,242.3 434.4,242.3 435.3,242.4 436.3,242.4 437.3,242.4 438.3,242.3 439.3,242.3 440.2,242.3 441.2,242.3 442.2,242.3 443.2,242.3 444.2,242.3 445.1,242.3 446.1,242.3 447.1,242.3 448.1,242.3 449.1,242.4 450.0,242.4 451.0,242.4 452.0,242.4 453.0,242.4 454.0,242.4 454.9,242.4 455.9,242.4 456.9,242.4 457.9,242.4 458.9,242.4 459.8,242.4 460.8,242.4 461.8,242.4 462.8,242.4 463.8,242.4 464.7,242.4 465.7,242.4 466.7,242.4 467.7,242.4 468.7,242.4 469.6,242.4 470.6,242.4 471.6,242.4 472.6,242.3 473.6,242.3 474.5,242.3 475.5,242.3 476.5,242.3 477.5,242.3 478.5,242.3 479.4,242.3 480.4,242.3 481.4,242.2 482.4,242.2 483.4,242.2 484.3,242.2 485.3,242.2 486.3,242.2 487.3,242.2 488.3,242.2 489.2,242.2 490.2,242.1 491.2,242.1 492.2,242.1 493.2,242.1 494.1,242.1 495.1,242.1 496.1,242.1 497.1,242.1 498.1,242.0 499.0,242.0 500.0,242.0 501.0,242.0 502.0,241.9 503.0,241.9 503.9,241.9 504.9,241.9 505.9,241.9 506.9,241.9 507.9,241.9 508.8,241.9 509.8,241.9 510.8,241.9 511.8,241.9 512.8,241.9 513.7,241.9 514.7,241.9 515.7,241.9 516.7,241.9 517.7,241.9 518.6,241.9 519.6,241.9 520.6,241.9 521.6,241.9 522.6,241.9 523.5,241.9 524.5,241.9 525.5,241.9 526.5,241.9 527.5,241.9 528.4,241.9 529.4,241.9 530.4,241.9 531.4,241.9 532.4,241.9 533.3,242.0 534.3,242.0 535.3,242.0 536.3,242.0 537.3,242.0 538.2,242.0 539.2,242.0 540.2,242.0 541.2,242.0 542.2,242.1 543.1,242.1 544.1,242.1 545.1,242.1 546.1,242.1 547.1,242.1 548.0,242.1 549.0,242.1 550.0,242.1 551.0,242.1 552.0,242.2 552.9,242.2 553.9,242.2 554.9,242.2 555.9,242.2 556.9,242.2 557.8,242.2 558.8,242.2 559.8,242.3 560.8,242.3 561.8,242.3 562.7,242.3 563.7,242.3 564.7,242.3 565.7,242.3 566.7,242.3 567.6,242.3 568.6,242.3 569.6,242.3 570.6,242.3 571.6,242.3 572.5,242.3 573.5,242.3 574.5,242.3 575.5,242.3 576.5,242.3 577.4,242.3 578.4,242.3 579.4,242.3 580.4,242.3 581.4,242.3 582.3,242.3 583.3,242.3 584.3,242.3 585.3,242.3 586.3,242.3 587.2,242.3 588.2,242.3 589.2,242.3 590.2,242.3 591.2,242.3 592.1,242.3 593.1,242.3 594.1,242.3 595.1,242.3 596.1,242.3 597.0,242.3 598.0,242.3 599.0,242.3 600.0,242.3 601.0,242.3 601.9,242.3 602.9,242.3 603.9,242.3 604.9,242.3 605.9,242.4 606.8,242.4 607.8,242.4 608.8,242.4 609.8,242.4 610.8,242.4 611.7,242.4 612.7,242.4 613.7,242.4 614.7,242.4 615.7,242.4 616.6,242.4 617.6,242.4 618.6,242.4 619.6,242.4 620.6,242.4 621.5,242.4 622.5,242.4 623.5,242.4 624.5,242.4 625.5,242.4 626.4,242.4 627.4,242.4 628.4,242.4 629.4,242.4 630.4,242.4 631.3,242.4 632.3,242.4 633.3,242.4 634.3,242.4 635.3,242.4 636.2,242.4 637.2,242.4 638.2,242.4 639.2,242.4 640.2,242.4 641.1,242.4 642.1,242.4 643.1,242.4 644.1,242.4 645.1,242.4 646.0,242.4 647.0,242.4 648.0,242.4 649.0,242.4 650.0,242.4 650.9,242.4 651.9,242.4 652.9,242.4 653.9,242.4 654.9,242.4 655.8,242.4 656.8,242.4 657.8,242.4 658.8,242.4 659.8,242.4 660.7,242.4 661.7,242.4 662.7,242.4 663.7,242.4 664.7,242.4 665.6,242.4 666.6,242.4 667.6,242.4 668.6,242.4 669.6,242.4 670.5,242.4 671.5,242.4 672.5,242.4 673.5,242.4 674.5,242.4 675.4,242.4 676.4,242.4 677.4,242.4 678.4,242.4 679.4,242.4 680.3,242.4 681.3,242.4 682.3,242.4 683.3,242.4 684.3,242.4 685.2,242.4 686.2,242.4 687.2,242.3 688.2,242.3 689.2,242.3 690.1,242.3 691.1,242.3 692.1,242.3 693.1,242.3 694.1,242.3 695.0,242.2 696.0,242.2 697.0,242.2 698.0,242.2 699.0,242.2 699.9,242.1 700.9,242.1 701.9,242.1 702.9,242.1 703.9,242.0 704.8,242.0 705.8,242.0 706.8,242.0 707.8,242.0 708.8,241.9 709.7,241.9 710.7,241.9 711.7,241.9 712.7,241.9 713.7,241.9 714.6,241.9 715.6,241.9 716.6,241.9 717.6,241.8 718.6,241.8 719.5,241.8 720.5,241.8 721.5,241.8 722.5,241.8 723.5,241.7 724.4,241.7 725.4,241.7 726.4,241.7 727.4,241.7 728.4,241.7 729.3,241.6 730.3,241.6 731.3,241.6 732.3,241.6 733.3,241.6 734.2,241.6 735.2,241.6 736.2,241.6 737.2,241.6 738.2,241.6 739.1,241.6 740.1,241.5 741.1,241.5 742.1,241.5 743.1,241.5 744.0,241.5 745.0,241.5 746.0,241.5 747.0,241.5 748.0,241.5 748.9,241.4 749.9,241.4 750.9,241.4 751.9,241.4 752.9,241.4 753.8,241.3 754.8,241.3 755.8,241.3 756.8,241.3 757.8,241.2 758.7,241.2 759.7,241.2 760.7,241.1 761.7,241.1 762.7,241.1 763.6,241.0 764.6,241.0 765.6,240.9 766.6,240.9 767.6,240.8 768.5,240.7 769.5,240.7 770.5,240.6 771.5,240.6 772.5,240.5 773.4,240.5 774.4,240.4 775.4,240.3 776.4,240.3 777.4,240.2 778.3,240.2 779.3,240.1 780.3,240.1 781.3,240.0 782.3,240.0 783.2,240.0 784.2,240.0 785.2,240.0 786.2,240.0 787.2,240.1 788.1,240.1 789.1,240.2 790.1,240.2 791.1,240.3 792.1,240.3 793.0,240.4 794.0,240.4 795.0,240.5 796.0,240.6 797.0,240.6 797.9,240.7 798.9,240.7 799.9,240.8 800.9,240.9 801.9,240.9 802.8,240.9 803.8,241.0 804.8,241.0 805.8,241.1 806.8,241.1 807.7,241.2 808.7,241.2 809.7,241.2 810.7,241.3 811.7,241.3 812.6,241.3 813.6,241.3 814.6,241.4 815.6,241.4 816.6,241.4 817.5,241.5 818.5,241.5 819.5,241.5 820.5,241.5 821.5,241.6 822.4,241.6 823.4,241.6 824.4,241.6 825.4,241.6 826.4,241.7 827.3,241.7 828.3,241.7 829.3,241.7 830.3,241.8 831.3,241.8 832.2,241.8 833.2,241.8 834.2,241.9 835.2,241.9 836.2,241.9 837.1,241.9 838.1,242.0 839.1,242.0 840.1,242.0 841.1,242.0 842.0,242.0 843.0,242.1 844.0,242.1 845.0,242.1 846.0,242.1 846.9,242.1 847.9,242.1 848.9,242.2 849.9,242.2 850.9,242.2 851.8,242.2 852.8,242.2 853.8,242.2 854.8,242.2 855.8,242.2 856.7,242.3 857.7,242.3 858.7,242.3 859.7,242.3 860.7,242.3 861.6,242.3 862.6,242.3 863.6,242.3 864.6,242.3 865.6,242.4 866.5,242.4 867.5,242.4 868.5,242.4 869.5,242.4 870.5,242.4 871.4,242.4 872.4,242.4 873.4,242.5 874.4,242.5 875.4,242.5 876.3,242.5 877.3,242.5 878.3,242.5 879.3,242.5 880.3,242.5 881.2,242.5 882.2,242.5 883.2,242.5 884.2,242.5 885.2,242.5 886.1,242.5 887.1,242.5 888.1,242.5 889.1,242.5 890.1,242.5 891.0,242.5 892.0,242.5 893.0,242.5 894.0,242.5 895.0,242.5 895.9,242.5 896.9,242.5 897.9,242.5 898.9,242.5 899.9,242.5 900.8,242.5 901.8,242.5 902.8,242.5 903.8,242.5 904.8,242.5 905.7,242.5 906.7,242.5 907.7,242.5 908.7,242.5 909.7,242.5 910.6,242.5 911.6,242.5 912.6,242.5 913.6,242.5 914.6,242.5 915.5,242.5 916.5,242.5 917.5,242.5 918.5,242.4 919.5,242.4 920.4,242.4 921.4,242.4 922.4,242.4 923.4,242.4 924.4,242.4 925.3,242.4 926.3,242.4 927.3,242.4 928.3,242.4 929.3,242.4 930.2,242.4 931.2,242.4 932.2,242.4 933.2,242.4 934.2,242.4 935.1,242.4 936.1,242.4 937.1,242.4 938.1,242.4 939.1,242.4 940.0,242.4 941.0,242.4 942.0,242.4 943.0,242.4 944.0,242.4 944.9,242.4 945.9,242.4 946.9,242.4 947.9,242.4 948.9,242.4 949.8,242.4 950.8,242.4 951.8,242.4 952.8,242.4 953.8,242.4 954.7,242.4 955.7,242.4 956.7,242.5 957.7,242.5 958.7,242.5 959.6,242.5 960.6,242.5 961.6,242.5 962.6,242.5 963.6,242.5 964.5,242.5 965.5,242.5 966.5,242.5 967.5,242.5 968.5,242.5 969.4,242.5 970.4,242.5 971.4,242.5 972.4,242.5 973.4,242.5 974.3,242.5 975.3,242.5 976.3,242.5 977.3,242.5 978.3,242.5 979.2,242.5 980.2,242.5 981.2,242.5 982.2,242.5 983.2,242.5 984.1,242.5 985.1,242.5 986.1,242.5 987.1,242.5 988.1,242.5 989.0,242.5 990.0,242.5 991.0,242.5 992.0,242.5 993.0,242.5 993.9,242.5 994.9,242.5 995.9,242.5 996.9,242.5 997.9,242.5 998.8,242.5 999.8,242.5 1000.8,242.5 1001.8,242.5 1002.8,242.5 1003.7,242.5 1004.7,242.5 1005.7,242.5 1006.7,242.5 1007.7,242.5 1008.6,242.5 1009.6,242.5 1010.6,242.5 1011.6,242.5 1012.6,242.5 1013.5,242.5 1014.5,242.5 1015.5,242.5 1016.5,242.5 1017.5,242.5 1018.4,242.5 1019.4,242.5 1020.4,242.5 1021.4,242.5 1022.4,242.5 1023.3,242.5 1024.3,242.5 1025.3,242.5 1026.3,242.5 1027.3,242.5 1028.2,242.5 1029.2,242.5 1030.2,242.5 1031.2,242.5 1032.2,242.5 1033.1,242.5 1034.1,242.5 1035.1,242.5 1036.1,242.5 1037.1,242.5 1038.0,242.5 1039.0,242.5 1040.0,242.5" fill="none" stroke="#2c6fbb" stroke-width="1.5"/>
<line x1="783.2" y1="240" x2="783.2" y2="300"
      stroke="#c0392b" stroke-width="1.5"/>
<text x="783.2" y="332" font-size="10" fill="#c0392b"
      text-anchor="middle">+2.38s</text>
</svg>